<svg id="Layer_1" data-name="Layer 1" xmlns="http://www.w3.org/2000/svg" viewBox="0 0 353.13 368.14"><defs><style>.cls-1{fill:#312821;}.cls-2{fill:#fff;}</style></defs><title>404-tumbleweed</title><path class="cls-1" d="M182.14,65.59a94.33,94.33,0,0,0-66.87,15c-20.18,13.69-32.58,35-41.87,57-10.7,25.36-19.77,52.34-21.67,80-1.56,22.62,2.36,47.11,17.88,64.57,15.25,17.15,38.45,24.18,60.35,27.93,25,4.29,52.2,6.76,76.49-2.08,23.58-8.58,40.28-28.59,59-44.3s37.38-32.16,41.86-57.58c4.44-25.2-3.8-50.18-16.19-71.91-6.1-10.69-12.89-21.76-21.91-30.25s-20.55-12.69-32.7-15.08a346.35,346.35,0,0,0-88.42-5.5c-12.2.77-24.82,2.44-35.48,8.86-8.57,5.16-15.17,13-19.87,21.72-11.43,21.29-13.42,47.32-14.14,71-.43,14.06-.22,28.36,1.68,42.31,1.5,11,4.61,22,11.59,30.82,15.06,19,43.44,25.75,66.55,25.84,27,.1,51-10.3,73.13-24.9,10.8-7.11,21.18-14.84,32-22q7.68-5.09,15.69-9.63c5.17-2.92,10.55-5.79,14.76-10.06,8.22-8.33,8.88-20.1,8-31.15a217.73,217.73,0,0,0-7.42-42c-2.95-10.55-6.32-21.82-15.43-28.73-9.5-7.21-22.25-9-33.7-10.77a273.15,273.15,0,0,0-42-3.28c-13,0-26.37,1-38.71,5.5-44.07,15.87-67.09,78.47-38.41,117.16,14.71,19.86,38.28,26.18,62,21.48,13.08-2.6,25.31-8,37.17-14,12.21-6.14,24.45-12.07,36.8-17.92,23.45-11.12,8.31-42.9-.7-59.28-5.63-10.23-12.23-20.8-23.93-24.54-11-3.5-23.9-3.35-35.27-2.1-22,2.43-44.16,11.73-58.68,29-13.55,16.08-20.29,38.44-15.85,59.21,4.61,21.58,21.63,37.27,41.24,45.84,18.47,8.08,46.83,15.47,62.69-1.33,7.69-8.15,11.17-19.36,14.4-29.83A351.57,351.57,0,0,0,256.34,190c4.73-26.11,5.76-53.35-1.3-79.14-2.95-10.81-6.95-23.21-16.21-30.32s-21.78-7.86-32.93-6.77c-23.51,2.29-45.61,13.82-62.07,30.59-17.35,17.69-28.48,40.92-33.55,65-2.68,12.73-3.88,25.94-1.88,38.85,1.95,12.65,7.43,24.15,15.12,34.29,28.76,38,78.21,59.33,125.36,57.91,10.6-.32,21.69-.65,28.48-9.91,7.24-9.87,11.12-23,13.29-34.85,4.89-26.84.26-54.18-7.47-80-7.93-26.5-18-52.74-30.93-77.22-6.1-11.57-12.84-23-20.85-33.4-7.33-9.48-16.16-14.56-28.21-15.38-26.1-1.79-53.95,6-77,17.86-21.81,11.28-40,27.51-48.77,50.93-8.67,23.2-9.39,50-7,74.43,2.28,23.36,9.92,46.37,28.27,62,17.16,14.6,39.53,21.34,61.22,25.76,25.49,5.19,53,9.41,76.6-4.45,20.17-11.87,35.7-32.21,46.88-52.42a186.58,186.58,0,0,0,21.74-67.15,179.69,179.69,0,0,0-4.9-70C294,64,282.51,42.83,260,33.09c-45.84-19.85-97.39,12.39-125,48.16-15.1,19.56-24.55,43.48-23.46,68.43,1.07,24.5,12.58,45.85,31.73,61,16.85,13.33,41.54,26.46,63.56,19.17,23.34-7.72,30-36.41,35.15-57.41,6.49-26.2,12.3-56,6.25-82.8-5.32-23.55-21.45-42-45.59-46.8-12.12-2.39-24.64-1.88-36.86-.59S141.06,45.9,130,51.74s-19.94,14.49-28,23.69c-8.31,9.46-16.33,19.42-22.88,30.19C66.19,126.87,62.33,151,67.32,175.36,72.1,198.7,83.93,221.28,99.78,239a48.61,48.61,0,0,0,30.11,16.25c10.52,1.62,21.64,1.88,32-.83,8.8-2.31,17.09-7.12,21.75-15.17,6.15-10.61,6.55-25,8.25-36.9,3.49-24.62,5.73-49.93,1.11-74.55C188.9,106,178.09,79.26,156.36,69.56c-11.61-5.18-24.66-4-36.92-2.41-13.87,1.78-27.64,4.25-41.28,7.32C66.63,77.07,55.28,80.25,47,89.23s-14,21.54-18,33.13c-4.09,11.9-6,24.76-3.49,37.21,2.45,12,9,22.77,16.32,32.41a259.09,259.09,0,0,0,55.57,53.17c10.74,7.64,22.67,16.25,35.94,18.57,11,1.91,21.79-1.56,30.6-8.1,20-14.8,28-42.55,35.4-65.1a458.3,458.3,0,0,0,18.79-84.06c1.64-12.78,3.73-26.44.22-39.11a43.18,43.18,0,0,0-17.17-23.59c-19.13-13.42-43.56-11.48-63.93-2C114.8,52.16,93.51,69.88,89.7,95.58c-7,47.2,25.38,95.51,67.92,113.71,21.59,9.24,47,12.35,69.93,6.8,4.32-1,8.59-2.71,11.24-6.46,3.2-4.5,3.43-10.57,4.07-15.87q2.71-22.44,4.13-45,1.48-23.53,1.56-47.14,0-10.81-.23-21.62c-.16-6.19.22-12.9-1.65-18.88-3.32-10.57-15.46-13.9-25-16.56a112.23,112.23,0,0,0-36.92-3.87C138.56,43.55,97.21,77.94,91,124.75c-1.8,13.56.62,25.34,6.85,37.42,6.5,12.57,11.63,25.58,17.18,38.59a219.52,219.52,0,0,0,42.17,64.59c7.59,8,16.53,18.48,27.21,22.37,11.49,4.18,22.52-3.29,32-9.06,10.38-6.35,19.15-13.83,24.33-25.1,5.33-11.59,8-24.71,9.95-37.26,7.3-48.11-2.58-98.67-28-140.25-5.81-9.51-12.26-21.27-24.33-23.15S172.75,55.79,161.65,60c-26.6,10-52,23.78-77,37.15-13,7-26,14.13-38.91,21.31-10.52,5.84-23.25,11.19-30.28,21.49C8.67,149.8,7,163.25,7,175a106.08,106.08,0,0,0,7.25,38.29c9,23.43,25.53,43.31,44.91,59,18.5,15,41.45,27.6,66,23.53,52.83-8.74,71-70.68,71.27-116.67a151.42,151.42,0,0,0-4.71-39.26c-3-11.33-7.25-23.08-14.74-32.25s-18-13.7-29.46-15.65a183.93,183.93,0,0,0-37.35-2.31c-12.26.47-23.94,3.45-33.75,11.08C67,108,59.87,118.06,53.8,128.22c-13,21.73-20.88,47.2-19.14,72.68,1.55,22.66,11,45.24,27.57,61,18.06,17.17,42.56,22.93,66.6,25.71,12,1.39,24.73,3.21,36.82,1.47,11.29-1.63,20.14-7.34,26.68-16.62,7.57-10.74,12.63-23.84,16.91-36.19A207.77,207.77,0,0,0,218.86,197c1.69-12.3.77-24.36-6.9-34.55-6.91-9.17-17-15.56-26.83-21.1a188.19,188.19,0,0,0-37.38-16c-12.35-3.76-25.84-6.61-38.65-3.42-11.74,2.92-21.42,10.78-30.26,18.67a163.89,163.89,0,0,0-23.85,26C40.68,186.42,33.68,209.74,38.91,234c5.14,23.84,18.89,47.29,36.17,64.4,16,15.87,37.11,26.47,60,26.11,23.82-.37,43-13,54.82-33.36,6.13-10.57,10.42-22.13,14.65-33.55q7.53-20.31,13.94-41A671.61,671.61,0,0,0,239,131.51c2.35-13.79,4.68-27.84,5.51-41.82.67-11.28-.76-22.78-8-31.84-13.32-16.56-37.5-19.36-57.23-20.71a297.27,297.27,0,0,0-45.06.33c-12.58,1.05-25.69,2.37-37.27,7.75-10.93,5.08-19.36,14-26.48,23.55a111.87,111.87,0,0,0-17.49,33.47c-7.49,24-2.72,48,11,68.76s33,38,52.41,53.11c19.05,14.83,40.22,27.57,63.55,34.3a116.67,116.67,0,0,0,36.32,4.93c12-.44,20.55-5.22,27.78-14.66,8.65-11.28,16.32-23.44,24.09-35.33s15.56-24,22.63-36.43c6.65-11.68,12.75-23.81,17.16-36.53,4-11.6,6.36-24.26,3-36.32C303.64,78.35,275,75.49,252.4,73c-13.13-1.47-27.91-3.49-40.43,1.9C201.21,79.51,193,89,185.46,97.57a263.16,263.16,0,0,0-54.37,98.67c-3.55,12-7.4,25-6.71,37.63,1.31,23.94,24.67,41.48,44,52.11,20.63,11.37,45.78,18.41,69.43,15.07,11.2-1.58,21.94-5.88,30.36-13.56,8.12-7.4,13.56-17.19,17.71-27.24,10.83-26.29,17.1-55.17,22.08-83.07,4.88-27.42,10-57,5.73-84.78-1.63-10.55-5-21.52-12.47-29.44C293,54.34,281,52.41,269.68,51.81,243.61,50.43,218,58.38,194.9,69.92c-22,11-46.56,24.87-59.77,46.33-6.59,10.71-10.58,22.84-13.52,35-2.9,12-7.08,26.14-3.5,38.37,2.88,9.79,10.29,17.31,18.4,23.12,9.12,6.54,20.62,13.51,31.92,14.95,12.32,1.57,22.86-6.16,32.11-13.28A189.41,189.41,0,0,0,229,187.1c16.42-19.26,29.95-41.27,40.89-64.06,10.66-22.2,18.47-47.19,13.6-71.95-4.06-20.6-16.8-39.92-37-47.43-24-8.9-50.6.11-73.09,9.17-23.77,9.57-46.86,21.11-68,35.7C85.64,62.19,65,79.07,52.43,99.84c-27,44.41,16.52,91.13,56,107.71A131.7,131.7,0,0,0,174.54,217c10.85-1.29,21.91-3.79,31.89-8.32,11.6-5.27,17.23-14.34,19.3-26.67a196.2,196.2,0,0,0,2-41.94c-.59-11.93-1.33-25.09-7.22-35.79-10.74-19.51-35.93-20.4-55.1-15.49-21.2,5.43-40.09,18.32-54.18,34.91A120.47,120.47,0,0,0,93.8,150.83c-4,8.64-10.33,21.11-6.65,30.7,1.57,4.06,5,6.55,8.48,8.86,6.18,4.1,10.07,8.5,12.28,15.69,3.77,12.2,5.17,24.81,9.71,36.85,8.14,21.61,22.32,41.4,43.82,51.17,20.17,9.16,42.79,7.56,60.34-6.39,20.33-16.18,30.06-43,36.24-67.41,2.94-11.59,2.71-23-3.72-33.39-5.85-9.45-14.9-16.73-24.34-22.39-19.69-11.83-43.65-17.07-66.41-13.39-49.22,8-71.52,57-82.38,100.44C75.07,276,73.38,303.49,88.6,325a49,49,0,0,0,23.61,18.39c11.57,4,24.46,3.4,36.37,1.41,49.19-8.24,86.62-47.17,106-91.31a242.1,242.1,0,0,0,12.31-35.61c3.09-11.72,6.32-24.2,6.62-36.38.28-11.41-3.68-21.38-13.75-27.38-11-6.54-24.78-9.53-37.11-12.28a414.16,414.16,0,0,0-41.58-6.71c-12.57-1.47-25.88-2.66-38.06,1.62-11.26,4-19.71,12.56-27,21.72A161.87,161.87,0,0,0,95.77,192,231.84,231.84,0,0,0,83,227.69c-3.4,12.5-5.7,25.83-2.82,38.66,5.18,23.16,27.52,40.66,47.1,51.87C147.8,330,175,335.3,195.84,321.07c9.94-6.79,17-17,23.09-27.2a168.85,168.85,0,0,0,15.76-35c7.79-24.55,9.41-51,3.17-76.12a123.11,123.11,0,0,0-14-34c-5.39-8.9-12.28-19.6-22.53-23.33-10.71-3.91-22.48.44-31.91,5.72a99.76,99.76,0,0,0-25.21,20.33C129,168.35,119,189.4,112.45,211c-3.54,11.67-6.85,24-7.17,36.3s3.93,23.13,11.56,32.59c15.36,19,39.09,31.48,63.06,35.23,46.27,7.24,98.79-20,112.06-66.66,7.17-25.24,1.84-52.18-9-75.52a220.26,220.26,0,0,0-20.49-34.34c-6.56-9.23-13.58-18.53-22.93-25.12-22.72-16-49.84-3.67-72.44,6.13-23.22,10.07-46.3,22.79-62.36,42.86C90,180.83,82.54,203.59,87.24,227c4.84,24.08,16.45,47.29,39.86,57.54,10.6,4.65,22.07,6.87,33.46,8.57,12.39,1.84,25.67,4.42,38,1.22,23.1-6,36.15-31.23,40.55-52.86,5.28-26,.2-52.59-9.2-77a290.09,290.09,0,0,0-39.2-70.05C177,76.14,159.72,53,134.58,52.67c-23.06-.32-47.84,10.09-66.09,23.64-18.66,13.86-32.75,33.34-38.33,56-5.44,22.11-3.07,46.33,8.83,66,12.75,21.07,34,35,54.26,48,10.44,6.7,20.45,11.69,33,8,12.88-3.74,25-11.8,36.58-18.4q18.76-10.69,36.9-22.47c9.92-6.48,19.7-13.4,28.1-21.81a77.53,77.53,0,0,0,19.06-30c4.5-13.26,5.94-27.53,7.54-41.37,1.74-15.08,3-30.21,4.09-45.34.52-7.13,1.08-14.26,1.5-21.39.35-6.06.48-12.38-2-18.06-4-9-13.49-13.14-22.45-15.56a266.37,266.37,0,0,0-41.28-7.42c-50-5.34-105.44,6.13-137.4,48.12-16.13,21.19-26.5,47.77-34.49,73-7.58,23.92-11.06,50.53-1,74.32,9.77,23.22,32.36,36.65,53.39,48.49,22.27,12.55,46.76,21.35,72.49,15.59,24.21-5.42,45-20.71,63.68-36.32,20.41-17.06,40.24-35.52,54.81-58,13.85-21.33,22.89-46.88,20.9-72.57a95.88,95.88,0,0,0-28.07-60.15c-16.89-16.72-40-26.19-63.73-27-24.64-.85-47.8,8.42-67.26,23.12C87.79,71.26,60,118.64,49.46,167.05c-5.36,24.5-3.33,48.3,10.38,69.71,12.52,19.54,31.89,35.05,53.21,44,50.59,21.3,99.58-19.43,134-52.37,18.42-17.64,36.61-36.76,47.31-60.24,10.18-22.33,13.35-48.69,2.94-71.52-5.28-11.57-13.46-21.57-22-30.91a272,272,0,0,0-28.56-27.11,273.75,273.75,0,0,0-31-22.07c-10.08-6.17-21.64-13.86-34-12.23-11.82,1.56-22.88,10-32.12,17a175.35,175.35,0,0,0-26.58,24.87C106.39,65.41,95,87.76,87,111.8,71.08,159.49,59.77,222,98.49,262.42,140.3,306.09,183.33,233.72,193,198a142.58,142.58,0,0,0,3.62-17.83c.55-4,1.9-9.42-.71-13s-8.25-4.16-12.24-5.1a167.66,167.66,0,0,0-19-3.52c-11.83-1.38-24.15-.57-34.77,5.3-10.82,6-18.91,16.32-26,26.19-14.58,20.27-25.69,45.22-22.18,70.7.57,4.17,1.38,8.49,4.76,11.34,3.88,3.28,9.72,3.66,14.58,3.7,11.44.08,22.45-3.8,32.33-9.36,11.17-6.28,21.09-14.66,30.53-23.26,9.77-8.89,19.44-17.95,28.58-27.51,17.56-18.37,33.21-39.17,41.14-63.59a103.16,103.16,0,0,0,5.24-37c-.58-10.94-2.61-25.55-11-33.48-7.63-7.2-19.26-7.57-29.1-6.78-13.32,1.07-26.3,4.65-38.71,9.5-25.92,10.11-50.53,24.47-73.74,39.7-21.89,14.38-42.64,30.73-56.63,53.25A134.79,134.79,0,0,0,9.49,245.75c-.33,21.06,5.71,45.93,30.42,48.6,11.86,1.28,23.23-3.1,33.23-9.12,11.26-6.78,21.73-15.07,32.19-23,20.4-15.45,40.23-31.67,59.08-49a567.34,567.34,0,0,0,54.76-57.46q11.88-14.47,22.6-29.87,5.29-7.62,10.25-15.48c2.47-3.92,7.38-9.39,6.68-14.45-.56-4-4.31-5.48-7.77-6.4a180.71,180.71,0,0,0-20.39-3.94,231.19,231.19,0,0,0-40.13-2.42A215.75,215.75,0,0,0,114.32,99c-43,17.68-79.42,51-99.52,93.05C5.11,212.34-4.56,238.7,2.33,261.16,9,283,28,300.79,47.18,312c39.67,23.21,88.65,23.37,130.54,6.2,22.44-9.19,42.9-22.8,60.91-39,17.66-15.85,35.7-34.78,44.81-57s6.46-47-3.46-68.47c-10.12-21.86-27.64-39.09-47.78-51.89A227.3,227.3,0,0,0,162,72.8c-26.08-6-52.25-4-74.38,12-19.84,14.41-35.79,35.11-48.26,56-13.24,22.22-23.64,47.43-27.9,73-2,12-1.68,24,3.73,35,4.77,9.73,12.63,17.6,21.07,24.22a233.1,233.1,0,0,0,29.06,19C76,298.2,88.1,303.58,100.71,302c24.18-3,38.75-29.4,51.82-47L207,181.61c15.1-20.33,36-42.34,37.48-69,1.27-22.24-12.94-39.54-35-42.58-25.74-3.55-48.76,12.33-69.73,24.9-24.27,14.55-49.73,28.1-72.31,45.24-19,14.43-35.5,32.67-42.45,56-6,20.19-4.33,47.94,14.44,61.25,9.93,7,23.4,6.85,35.05,7.76,13.39,1.05,26.84,1.72,40.26.92,23.28-1.39,46.37-7.63,64.56-22.76A101,101,0,0,0,212,190.89a96.23,96.23,0,0,0,2.82-30.37c-.62-8.71-1.57-21.8-8.48-28-3.54-3.18-8.46-3.89-13-4.49a119.6,119.6,0,0,0-19.75-1,133.94,133.94,0,0,0-37.63,6.81A154.53,154.53,0,0,0,74.6,172.52c-17,17.32-30.3,38.13-40,60.35-5,11.42-10,23.69-11.77,36.09-1.79,12.65,1.86,24.41,8.79,35,12.94,19.69,33.67,32.8,55.47,40.75,13.41,4.9,27.41,8,41.47,10.38,14.68,2.5,29.64,4.87,44.56,4.86,47.15,0,91.07-29.34,108.52-73.22a117.48,117.48,0,0,0,4.83-72.4c-3-11.37-8-22.54-16.38-31C261.54,174.7,250,169,238.7,164.85a114.13,114.13,0,0,0-128.39,37.26c-14,18-24.86,42.68-22.6,65.92,2.33,23.91,20.59,44.21,38.58,58.59s39.72,24.46,62.84,26.32c21.78,1.74,44.37-4.69,61.63-18.18,19.09-14.92,27.05-36.79,30.58-60.12A190.75,190.75,0,0,0,278.19,202a188.08,188.08,0,0,0-30.7-67.18c-2.55-3.49-5.26-7.3-9.71-8.38-5.08-1.24-10.27,1.38-14.53,3.84-11.14,6.41-20.59,15.35-29.55,24.46-18.26,18.57-36.36,38.51-46,63.08-9.29,23.6-10.73,51.14-2.63,75.31,7.13,21.28,23.1,37,45.88,39.77,22.52,2.71,43.91-7.43,58.78-24,16.45-18.36,24.31-42.27,27.61-66.33,4.09-29.87,3.43-60.79.73-90.75-2.12-23.4-6.89-47.78-25.86-63.59-19.8-16.5-46.48-19.86-71.28-16.42-11.94,1.65-24.8,4.12-34.53,11.73-7.88,6.16-12.9,15-16,24.43-3.36,10.21-4.6,21-5.31,31.7-1,14.3-1.43,28.66-1.68,43a782.53,782.53,0,0,0,3.28,89.8c2.76,28.21,6.53,57.25,14.3,84.57,3,10.57,11.81,12,21.75,10.7,11.86-1.58,22.9-7,32.15-14.44,19.68-15.9,30.44-40.81,36.82-64.7a200,200,0,0,0,5-76.93c-3.19-24.82-10.71-50.49-24.07-71.84-5.58-8.92-12.78-17.39-22.27-22.27-10.68-5.5-22.71-5.09-34-1.76-12.14,3.58-24,9.53-34.75,16.08-10.59,6.42-20.28,14.28-28,24-16,20.32-25.2,47.49-29.61,72.7-4.28,24.46-2.65,50.14,9.82,72.07,10.81,19,28.3,33.71,47.94,43s45.3,15.63,66.78,9.52c22.54-6.4,37.54-26.68,45.15-47.84a169.49,169.49,0,0,0,8.64-39.2c1.29-12.07.7-24.84-5.85-35.44-6.2-10-16.31-17.21-25.93-23.7A207.33,207.33,0,0,0,175,187.64c-12.46-5.26-26-9.23-39.63-7.2-12.38,1.84-23.62,8.21-33.39,15.78-33,25.51-52.29,69.24-46.7,110.86C58,326.93,67,346.82,84.71,357.48c19.17,11.54,43,10.35,64.45,8.57,1.91-.16,1.92-3.16,0-3-21.9,1.82-46.58,3.16-65.59-9.87-18.23-12.49-25.52-35.71-26.13-56.88-1.25-43.19,24-91.06,64.62-108.84,25.44-11.12,52.41,1.45,74.67,14.35,10.31,6,20.76,12.67,29.39,20.95,9.83,9.44,14,21.12,13.85,34.67-.18,12.08-2.62,24.41-5.69,36.07-3.17,12-7.86,23.75-15.23,33.82-6.35,8.67-14.71,16.09-24.57,20.53-11.6,5.22-24.63,5.13-37,3.39C117,345.53,77.74,318,67.65,276.94c-6.17-25.14-1.47-51.66,6.63-75.8,7.83-23.32,19.1-45.28,39.24-60.24a159.44,159.44,0,0,1,30.4-17.19c11.94-5.32,25.5-9.83,38.57-6.11,22,6.25,33.42,31.72,40.67,51.26,16.59,44.71,16.45,95.65-1.33,140-9,22.39-23.91,44.14-47.38,52.87a53.85,53.85,0,0,1-16.15,3.41,21.25,21.25,0,0,1-7.66-.67c-4.62-1.51-6-5.35-7.12-9.62-3.23-12.63-5.76-25.48-8-38.32-8.86-51.73-10.62-104.46-8.49-156.82.85-20.83.44-44.79,11.77-63.18C145.31,86,155.4,80.36,167.16,77.44a126.26,126.26,0,0,1,38.62-3.68c23.71,1.59,47.31,12.78,58.75,34.45,5.63,10.65,8.1,22.73,9.56,34.6,1.59,12.85,2.33,25.83,2.7,38.77,1.32,46.33.15,105.91-41.26,136.21-17.37,12.72-41.32,17-61.14,7.29-21.73-10.63-30-36.07-31.35-58.67-1.52-24.78,5.47-48.88,19-69.59a217.18,217.18,0,0,1,23-28.67c8-8.66,16.25-17.33,25.29-25a98.81,98.81,0,0,1,14.43-10.3c2.91-1.68,6.17-3.51,9.62-3.71,5.07-.3,7.86,3.54,10.52,7.18a178.7,178.7,0,0,1,16.68,27.84,189.74,189.74,0,0,1,18.18,66.29c2,22.72.26,46.78-7.18,68.46C265.35,320,249.12,335.9,228.51,344c-42.53,16.79-88.46-3.51-117.4-35.91-7.77-8.7-14.76-18.57-18.28-29.8-4-12.91-2.36-26.48,1.53-39.21A112.32,112.32,0,0,1,128.86,187c35.43-30.24,89.63-34.65,129.13-9.42,21.16,13.52,28.58,38.88,29.07,62.84a116,116,0,0,1-18.51,65.27,114.13,114.13,0,0,1-49.93,41.8c-23.23,10.15-47.58,10.72-72.37,7.31-25-3.44-50.75-8-73.5-19.51-19.74-10-40.37-26.95-46.16-49.31-3.26-12.55.65-25.09,4.86-36.92a223.67,223.67,0,0,1,14.26-32c10.69-19.64,24.53-37.63,41.56-52.18a146.55,146.55,0,0,1,61.4-31.39,126,126,0,0,1,34.78-3.27c5.79.28,13.2.21,18.43,3,5.76,3.08,7.13,10.34,8.36,16.22,8,38.26-11.25,80.76-45.1,100.22-21,12-45.85,14.36-69.59,13.75C83.36,263,71,262.2,58.93,260.77c-13-1.55-22.84-7.41-28.76-19.35-10.48-21.14-4.42-46.74,7.5-65.89,12.59-20.2,32.42-34.6,52.26-47.05,21.68-13.61,43.79-26.67,65.88-39.62C175.49,77.31,200,65.92,222.47,77c23.82,11.68,21.93,41,11.23,61.19-5.5,10.41-12.81,19.76-19.8,29.18l-24.28,32.72-48.56,65.42c-6.91,9.3-13.8,19.18-23.21,26.16-10,7.45-21.7,9.35-33.67,5.77-11.72-3.51-22.37-10.55-32.59-17.1-8.66-5.56-17.15-11.62-24.21-19.17-8.22-8.8-13.62-19.56-14.13-31.73-.53-12.48,2.91-25.08,6.51-36.94A227.13,227.13,0,0,1,50.05,129.7c13.08-19,29.48-38.53,50.3-49.27,23.51-12.12,50.52-8.5,74.84-.92,21.9,6.83,43.47,16.2,62.25,29.49s34.7,31.33,42.85,53.24c8,21.55,7.9,45-2.75,65.63-10.34,20-27.16,37.27-44,51.93s-35.88,27-56.57,35.54c-39.39,16.19-84.88,16.92-123.11-3.06-18.75-9.8-36.43-25.09-45.67-44.44C-2.5,245.54,6,219,15.5,197.66c17.17-38.54,48.31-70.39,85.85-89.45,43.18-21.91,94-27.09,141.18-17.42,2.75.56,5.54,1.08,8.24,1.85,5.26,1.53,4.54,6.67,2.22,10.54-3.18,5.31-6.56,10.51-10,15.66q-10,14.88-21.18,28.93a539.41,539.41,0,0,1-46,50.55c-16.62,16.18-34.13,31.41-52.22,45.91q-14.42,11.55-29.3,22.52c-9.24,6.84-18.49,14.13-28.82,19.28-11,5.5-24.86,8.18-36.25,2.09-10.07-5.38-14.39-16.55-15.95-27.28C10,238.16,15.07,213.62,24.61,193,34.83,170.91,51,153.2,70.38,138.71c20.17-15.11,42.14-28.11,64.54-39.63,22-11.3,46.63-22.24,71.88-21.63,5.25.12,10.67.93,15.31,3.53,6.19,3.47,8.93,9.72,10.83,16.23a85.64,85.64,0,0,1,1.89,37.51c-3.86,23.92-16,45.42-31.18,63.95-14.78,18-32.13,34.41-49.86,49.47-8.86,7.51-18.38,14.57-29,19.31a60.64,60.64,0,0,1-17.34,5c-5.23.62-12.26,1-17.09-1.45-6.18-3.19-6.09-12.59-6.2-18.66a75.94,75.94,0,0,1,2.31-19.57,113.85,113.85,0,0,1,14.31-32.56c6.36-10.2,13.84-20.55,23.06-28.38,9.73-8.25,21.58-11.3,34.17-10.81a113,113,0,0,1,18.23,2.47c4.8,1,15.63,1.71,17.52,6.74s-.3,12.19-1.31,17.32a141.88,141.88,0,0,1-4.66,17.59c-7.22,21.57-20,43.41-37.66,58.08-9.3,7.72-21.17,12.78-33.16,8.46-11.74-4.23-20.63-14.95-26.89-25.32-26.66-44.2-13.14-100.95,4.23-146a175.22,175.22,0,0,1,36.85-58.57A169.56,169.56,0,0,1,157,19.66c10.34-7.17,22.23-15.18,35.37-11.55,11.4,3.15,22.28,11,32,17.52a271.84,271.84,0,0,1,28.13,21.79c17.24,15.28,36.36,33.65,44.28,55.82,17.6,49.26-21.28,94.07-54.29,125.38-33.41,31.69-81,70.18-129.54,48.87-20-8.75-38.16-23.28-50.09-41.61-13.59-20.89-15.75-44-10.49-68C62.13,123.13,86.44,80.42,121.1,50.3c17.58-15.27,38.88-27,62.42-29,23.2-2,47.19,4.76,65.51,19.26A93.38,93.38,0,0,1,282.25,95c4.87,24.24-1.33,49.32-12.87,70.79s-28.27,39.27-46.17,55.37c-17.33,15.61-35.76,31.28-57.07,41.2-10.6,4.93-22.06,8.25-33.8,8.63-12.63.41-25-2.69-36.64-7.49-11.26-4.65-21.85-10.82-32.2-17.2s-20.36-13-28.38-22C18.57,205.7,15.73,179.41,20,155.73c4.26-23.87,13.94-47.79,24.78-69.4C55.44,65,70.22,46.82,90.86,34.44c20-12,43.1-18.24,66.32-19.79,25.84-1.72,52.65,1.49,77.62,8.23,12.62,3.41,22.1,10,22.44,24.13.31,12.52-1.45,25.38-2.43,37.86-1.06,13.48-2.29,27-3.94,40.39-1.57,12.83-3.13,26-7.74,38.18-8.44,22.32-28.22,36.77-47.57,49.23Q179.54,223,163,232.46C151.59,239,139.7,246.85,127.15,251c-13.38,4.4-23.45-1.45-34.44-8.53-10-6.43-19.93-13-29-20.66-17.84-15.05-30.61-34.35-32.93-58a92.38,92.38,0,0,1,16.71-62.09c12.88-18.1,31.89-31.42,52.63-39,10.81-4,22.88-7.21,34.47-7,12.49.19,22.87,6.46,31.7,14.85,17.35,16.47,31.52,37.26,43.25,58,12.24,21.64,22.61,45.1,26.89,69.72,4.23,24.27,1.69,50.68-11.82,71.78-6.09,9.51-14.84,18-25.92,21.14-12.48,3.55-26.33.72-38.87-1.2-22.45-3.44-45-10-57.35-30.68-12.21-20.37-17.87-46.53-9.89-69.34,7.85-22.46,25.4-39.74,45.26-52.05a236.53,236.53,0,0,1,30.75-15.69c11.58-5,23.53-10.36,36-12.69,13.51-2.53,26.2.31,36.78,9.17,8.8,7.37,15.55,17,22,26.44,13.68,20,25.21,42.4,28.16,66.79,3.06,25.31-4,49.77-21.26,68.68a102.45,102.45,0,0,1-58.38,31.49c-23,3.86-47.06-1-67.17-12.67-10.07-5.87-19.49-13.52-26.59-22.8-8.7-11.37-11-24.18-9-38.2,6-40.25,25.76-85.33,63.15-105.37,11.2-6,25-9.47,35.49-.22,8.64,7.61,15,18.82,19.74,29.19,9.92,21.62,13.13,46,10.2,69.54-3,24-12.14,47.19-25.42,67.34-6.92,10.52-15.58,20.18-27.67,24.63-11.27,4.15-23.83,4-35.32.84s-22.19-9.1-31.88-16.08c-9.44-6.78-18.76-14.51-25.63-24-16-22-9-48.58-.8-72.25,7.73-22.2,19-44.59,35.89-61.24,9.52-9.35,21-13.66,34.22-13.94,12.79-.26,25.79,1.85,38.4,3.78a289.07,289.07,0,0,1,38,8.13c11,3.24,25.3,6.87,30.6,18.3,5,10.8,1.74,24.09-.55,35.17A267.24,267.24,0,0,1,258,236.61c-15.24,43.32-45,83.18-89.2,99.67-20.54,7.65-48.2,12.31-67-1.76-19.35-14.46-24.11-40.19-21.41-62.87,2.73-22.93,10.47-46.84,21-67.36,10-19.4,24.76-36.93,45.37-45.38,20.24-8.3,43.36-7.46,63.78-.23,20,7.08,45.67,23,46.45,46.77.41,12.45-5.05,25.83-9.29,37.35-4.34,11.81-9.91,23.41-18.1,33.06-15.17,17.86-37.35,25.6-60,18.25-22.17-7.2-37.79-25.43-46.88-46.3a158.14,158.14,0,0,1-9.63-32.25c-1.8-9-3.78-18.54-11.37-24.57-4.13-3.28-9.61-5.27-11.73-10.46-2.47-6.07.47-13.36,2.58-19.17a116.89,116.89,0,0,1,14.26-27.23c11.89-16.92,28.44-30.91,47.71-38.65,17.82-7.15,44.21-11.48,58.94,4.27,9,9.57,10.09,24,10.92,36.46a217,217,0,0,1-.82,38.74c-.69,6.11-1.53,12.47-4.23,18.07-3,6.22-8.35,10.29-14.52,13.08-9.93,4.48-21.1,6.91-31.88,8.08a129.23,129.23,0,0,1-62.1-8.8C72,189.6,28,143.44,55.92,99.91,68.45,80.34,88,64.2,106.91,51.12c18.72-12.93,39-23.49,59.93-32.37C188.61,9.51,213.65-.63,237.71,4.29c21.6,4.42,36.23,22,41.74,42.71,6.34,23.82-.27,48.57-10.23,70.41a301.39,301.39,0,0,1-36.09,59.88,205.2,205.2,0,0,1-23.38,25.48c-8.53,7.79-18.53,16.78-29.59,20.67-13,4.57-26.33-3.26-37.12-10-9-5.58-18-13-21.6-23.3-4.16-12,.18-26.22,3.06-38.14,2.76-11.39,6.42-22.71,12.38-32.87C149.14,98.26,172.31,85,193.28,74.1,215,62.86,239,54.65,263.66,54.65c11.74,0,25.44.88,34.39,9.42,8.69,8.29,11.8,21,13.17,32.53,3.14,26.27-1.59,53.94-6.2,79.78A496.28,496.28,0,0,1,286.47,250c-7.55,22.05-19.79,41.76-44,47.16-22.44,5-47.26-1.11-67.49-11.11a126.29,126.29,0,0,1-29.5-20.16c-8.85-8.16-16.74-17.86-18-30.27s2.61-25.24,6-37a259.66,259.66,0,0,1,47.66-91.33c7.11-8.76,14.72-18,23.79-24.8C216.28,74,229.37,74,242.89,75.07c12.93,1,26.17,2.53,38.71,5.92C294,84.33,304,91.44,307.73,104.14c3.51,11.77,1.16,24.1-2.78,35.45-4.33,12.48-10.33,24.36-16.86,35.82-12.76,22.4-27.24,43.94-41.95,65.1-3.11,4.46-6.2,9.06-10.25,12.73-5.32,4.82-11.81,6.7-18.87,7.07-11.4.6-23.06-1.19-34-4.15-22-5.92-42.09-17.37-60.24-30.9-17.92-13.35-35.3-28.79-49.29-46.26-15.14-18.92-24.65-41.64-20.12-66.14,2.25-12.17,7.29-23.69,13.84-34.13,6.32-10.06,14.07-20,23.94-26.78,10.68-7.36,23.7-9.5,36.33-10.85a299.23,299.23,0,0,1,38.33-1.58c20.63.48,46.16,1.2,63,14.91,9.49,7.73,13,18.87,12.83,30.82-.14,13-2.45,26.16-4.49,39a654.48,654.48,0,0,1-16.71,75.3,681.71,681.71,0,0,1-24.3,71.75c-8.71,21.35-21.41,41.6-45,48-46.86,12.76-86-27.1-103-66.54-9.88-23-11-47.33.4-69.94,10-19.71,26.85-37.84,45-50.29,11.74-8,24.54-10.32,38.5-8,12.19,2.07,24.19,6.34,35.48,11.3,20.6,9.06,48,22.88,49.07,48.51.53,12.66-2.87,25.9-6.24,38a211.61,211.61,0,0,1-13.72,36.35c-5,10.32-11.42,20.75-22.62,25.13-11,4.31-23.51,2.86-35,1.79C115.51,283.48,90.49,280,71,265.44c-17.71-13.27-28.78-34.18-32.34-55.8C34.74,185.75,40.3,161,51,139.58,61.56,118.43,76.79,97,101.8,93.35c11.7-1.69,23.91-.69,35.64.34s24.07,3.29,33.12,11.43,14,20.54,17.33,32.08a143.23,143.23,0,0,1,5.51,36.52c1.15,44.6-13.89,104.46-63,117.84C106.62,298,83.52,287.2,64.91,273,46.1,258.6,29.6,240.29,19.73,218.61A106.62,106.62,0,0,1,10.22,182c-.86-12.36,0-26.69,6.08-37.77,5.8-10.57,17.46-15.74,27.55-21.35,11.79-6.56,23.6-13.1,35.48-19.52,22.75-12.3,45.74-24.26,69.36-34.8,11.58-5.18,23.57-9.87,36.12-12.06,6.65-1.16,14.12-1.87,20.13,1.88,5.32,3.33,8.82,9.25,12.16,14.38,24.58,37.77,35.87,83.75,32.32,128.62a197.52,197.52,0,0,1-5.91,34.82c-3.15,11.9-7.49,23.28-16.95,31.61a94.35,94.35,0,0,1-14.48,9.95c-5.88,3.48-12.24,7.72-19.24,8.22-12,.85-22.34-11.37-30-19.15a214.54,214.54,0,0,1-40.1-56.46C117.24,199.2,113,187.49,108,176.11c-5.29-12-13.46-23.32-14.55-36.76-3.71-45.82,35.43-86,78.35-94.08a107.84,107.84,0,0,1,35.89-.63,110,110,0,0,1,16.33,3.74c6.18,1.92,14.27,4.09,18,9.81,3.17,4.84,2.93,11.33,3.1,16.88q.31,10.31.36,20.63.09,20.14-.85,40.29t-2.9,40.18c-.64,6.52-1.34,13-2.17,19.54-1,7.69-2.27,14.29-10.63,16.89-21.25,6.62-46.83,3.19-67.18-4.81-41.9-16.47-73-61.06-69.71-106.77a54.55,54.55,0,0,1,14.65-34.16,105.22,105.22,0,0,1,28.94-21c20.48-10.37,45.85-13.15,65.15,1.35,21.79,16.36,16.59,44.61,13.1,68.12a455.25,455.25,0,0,1-17.46,74.42,327.34,327.34,0,0,1-13.3,35.12c-5.1,11.12-11.79,22-22,29.1s-22,9.17-33.77,5.12c-11.61-4-22.22-11.84-32-19.06C75.75,225.51,57.51,208.14,43,188.47,36,179.11,30.06,168.67,28.11,157c-2.12-12.59.55-25.46,5-37.25C37.41,108.57,43.21,96,52.54,88s22.29-9.87,33.8-12.27a372,372,0,0,1,40.22-6.43c12.19-1.18,24.56-.64,34.94,6.59,19.22,13.4,27.44,39.9,30,62.05,2.74,23.4,0,47.15-3.52,70.31-1.71,11.25-2.15,25.08-10.2,33.9-6.84,7.48-17.36,10.32-27.15,11-10.3.77-21.55,0-31.28-3.64-11.92-4.42-20.13-15-27.16-25.12-13-18.74-22.35-40.79-23.91-63.72-1.63-23.91,6.63-45.19,20.57-64.3s30.76-39.57,54.23-46.87c11.58-3.61,24-4.91,36-5.33,11.3-.39,22.94.4,33.56,4.59,24.2,9.56,34.09,35.52,34.77,59.83.72,25.94-5,52.73-12.38,77.48-3.27,11-7.05,22.52-14.82,31.21s-19,12.27-30.63,11.22c-22.86-2.07-46.55-18-60.18-36-14.34-18.9-17.93-44-12.84-66.81,5-22.6,18.33-42.53,34.87-58.41,16.91-16.23,37.79-30,60.91-35.24,21.81-4.9,46.76-1,63.42,14.79,16.23,15.4,22.71,39.63,25.88,61.09a182.85,182.85,0,0,1-27.31,124.9c-12.25,18.85-29,38.34-50.79,46-23.16,8.14-50.22,2.1-73.34-3.56-20.43-5-41.26-13-55.83-28.79-16-17.35-20.79-41.47-21.73-64.35s.26-47.49,10-68.67C92.79,91.5,112.55,76.92,134.09,67A159,159,0,0,1,169,55.6c12.32-2.52,26.21-4.53,38.76-2.47,13.05,2.14,20.25,11.67,27.19,22a284.07,284.07,0,0,1,18.44,32,438.39,438.39,0,0,1,27.46,71.08c7.09,24.2,11.42,49.79,7.23,74.93-2,11.87-5.65,24.45-12.39,34.54-7.14,10.68-21.57,9.91-33.1,9.76-44.41-.56-90.84-21.57-117.45-57.81C109.41,218.27,108,193,113.7,167.73c5.17-22.73,15.82-44.56,32.25-61.29,16.25-16.53,38.27-28,61.55-29.85,11.5-.9,24.52.31,32.8,9.29s11.56,22.84,13.91,34.41c5,24.79,3.06,50.52-2,75.14a368.69,368.69,0,0,1-9.46,36.12c-3.21,10.26-6.82,21.49-15.17,28.79-9.87,8.63-23.84,7.86-35.87,5.41a101.57,101.57,0,0,1-29.16-10.53c-19-10.6-32.58-28.67-33-50.94-.44-21.05,9.63-41.56,25.87-54.78,17.38-14.15,40.44-20,62.56-19.33,13.41.41,25.38,2.65,33.73,14a119.26,119.26,0,0,1,16.73,33.41c3.65,11.18,6.95,25.64-5.57,32.43-4.68,2.54-9.79,4.34-14.59,6.63-6,2.87-11.9,6-17.81,9-22.16,11.43-47.81,23.56-73.3,16.55-22.31-6.14-37.45-27.28-40.06-49.71-2.76-23.69,6.77-48.74,23.07-65.88,17.5-18.41,41.63-22.47,66-22.21a271.55,271.55,0,0,1,40.37,3.46c11.09,1.79,23.82,3.6,32.52,11.37,9,8,11.82,21.81,14.54,33.05a194.3,194.3,0,0,1,5.65,37.84c.22,5.58,0,11.33-2,16.62-2.51,6.79-8,11.23-14,14.86-9.53,5.74-19.08,11.22-28.26,17.55C235.9,252.37,217.12,267,195,274.8a109.27,109.27,0,0,1-74.49-.83C109.35,269.74,98.54,263.21,92,253s-8.55-22.16-9.51-33.86c-2.06-24.91-1.53-51,3.41-75.56C89.79,124,98.09,103,116.9,93.29c11.29-5.79,24.38-6.65,36.83-7.22a361.4,361.4,0,0,1,40.71.46,342.59,342.59,0,0,1,39.6,4.9c12.5,2.33,24.35,6.18,33.67,15.21,8.52,8.26,15,18.81,20.85,29.07,6.13,10.75,11.25,22.13,14.25,34.17,6,24,2.24,49-14,68-7.18,8.44-15.76,15.55-24.23,22.64S248.11,275.06,240,282.44c-9,8.2-18.63,16-29.91,20.91s-23.56,7-35.78,7.4a199.44,199.44,0,0,1-67.56-9.34c-21.88-7.16-40-21.18-47.57-43.54-7-20.74-5.36-43.49-.85-64.56a297.1,297.1,0,0,1,22-63.75C89.43,110.05,102,92,120.74,80.64a91.27,91.27,0,0,1,60.6-12.16c1.89.29,2.71-2.6.8-2.89Z"/><path class="cls-1" d="M175.82,81a1.5,1.5,0,0,0,0-3,1.5,1.5,0,0,0,0,3Z"/><path class="cls-1" d="M197.14,78.71C164,56.54,111.66,41.78,78.46,71.15,47,99,35.06,144.52,32.67,184.94c-1.29,21.77-.47,44.39,8.79,64.51,7.66,16.65,20.36,30.5,35.07,41.23a145.12,145.12,0,0,0,54.54,24.49c21.3,4.51,42.15,1.65,59.84-11.51C208,290.94,221.55,273,232.76,255.11a310.65,310.65,0,0,0,29.72-61.88c15.08-43,19.23-91.44,2.27-134.62-3.47-8.84-7.66-17.84-14.53-24.58s-16.33-10.19-25.82-11.7a80.57,80.57,0,0,0-58.62,13.61c-35.86,25.33-45.6,71.12-49.21,112.18C112.88,190,114.08,238.49,147,269.49a73,73,0,0,0,52.51,19.87c19-.66,36.47-8.94,49.91-22.18,13.18-13,22.2-29.67,28.8-46.79,7.94-20.58,14.27-43.56,12.59-65.79-1.7-22.63-12.44-43.44-23.44-62.85a175.51,175.51,0,0,0-17.66-26.2C243.37,58,235.8,50.2,226.52,46.41c-9.61-3.91-19.23-1.29-28.15,3.17a247.38,247.38,0,0,0-26.06,15.54,273.15,273.15,0,0,0-46.06,38.32A210.86,210.86,0,0,0,70.42,214.6c-3.94,23-5,46.33-4.65,69.6.26,18.8,1.62,39.09,18.5,50.74,7.53,5.19,16.51,7.94,25.35,9.89a246.87,246.87,0,0,0,29.49,4.69c20,1.92,39.77-.83,54.92-15,7.94-7.44,14.25-16.59,20.44-25.48,6.89-9.92,13.42-20.09,19.77-30.36C247,258,260,237.27,271,215.6c20.69-40.94,29.16-89,6.29-131C273,76.73,267.54,69.1,260.05,64c-8.62-5.93-19-6.93-29.13-7.19-11.29-.3-23-.69-33.95,2.49-9.28,2.7-17.49,8-24.75,14.28C142.88,99,125,137.42,121.48,175.81a142.49,142.49,0,0,0,32.25,104.32c23.13,27.8,57,47.38,93.29,50.48,20.46,1.74,40.6-2.88,55.33-17.86s24.4-35.2,29.67-55.39c11.8-45.14,1.39-93-18.1-134.4A244.48,244.48,0,0,0,297,92.25c-2.29-3.47-4.86-6.83-8.58-8.86-4.16-2.27-9.11-2.68-13.75-3-19.33-1.41-38.77,2.83-56.28,11C180.82,108.81,155,143.2,142.7,182.17a201,201,0,0,0-9.18,62.57c.12,9.31,1.2,18.87,5.11,27.42,4.07,8.92,11.28,15.21,20,19.43,36.53,17.63,82.62,15,118.46-2.85,34.51-17.21,60.6-49.69,71.06-86.7,5-17.65,8.88-40.44-2-56.7-11.4-17-34.09-24.26-53.32-27-20.5-3-41.72-2-58.75,11-16.63,12.75-29.11,32-37.91,50.76a172.79,172.79,0,0,0-15.81,59.44c-1.62,20.17-.56,42.53,9.32,60.67,9.35,17.19,26.55,27.32,44.16,34.44,7.8,3.15,18.51,9.26,26.63,4.45,4.33-2.57,8.2-6.27,12.09-9.45,4.62-3.78,9.2-7.62,13.62-11.62,15.08-13.66,27.66-29.39,36.15-48a153.92,153.92,0,0,0,13.35-53.51,163.63,163.63,0,0,0-5.82-55.65c-5.09-17.9-13.19-36.67-25.84-50.57-25.59-28.12-73.14-23.1-103.71-6.76a107.85,107.85,0,0,0-38.71,34.63c-11.83,17.62-17,38.69-18.49,59.66-2.74,38.28,8.59,79.78,46,97.12,31.87,14.77,77.49,10.11,100.27-18.81,13.46-17.1,18.35-41.06,22.54-61.9a336.73,336.73,0,0,0,6.56-72.36,248.87,248.87,0,0,0-2.66-34.28c-1.66-10.51-4-22.24-10.07-31.23-11.49-17-36.11-15.39-53.46-10.5-19.94,5.62-40.38,15.79-56.41,29-16.53,13.56-26,32.11-32.16,52.23-6.55,21.23-12.79,44.51-10.39,66.91,2.33,21.63,14.68,39.21,29,54.9,6.61,7.25,13.8,14.15,22.13,19.42,5.5,3.48,17.69,11.16,24.08,6.44,3.68-2.72,6-7.93,8.45-11.65L247.7,267c6.9-10.31,13.83-20.61,20.69-30.95,25-37.59,50.3-80.67,44.62-127.7-1.09-9-3.73-17.85-11.28-23.52-6.67-5-15.2-6.7-23.33-7.45a216.88,216.88,0,0,0-35.68.15c-11,.81-22.37,1.88-33,5-9.29,2.7-17.7,7.32-24.08,14.71-6.62,7.69-11.35,17.1-14.91,26.56a120.15,120.15,0,0,0-5.67,61.37c3.27,20.09,11.65,39.19,23.41,55.75a154.39,154.39,0,0,0,19.72,22.7c7.05,6.67,14.89,13.66,23.78,17.75,18.25,8.41,41.29-.19,57.89-9a115.94,115.94,0,0,0,61.84-99.18c.33-10-.1-21-4.11-30.4s-12-15-20.42-20c-17.85-10.62-38.08-20.7-59.31-20.86-20.31-.15-37,10.73-49.64,25.92C192,159.32,176.58,204,181.36,244.94c2.13,18.2,8.74,36.4,21.8,49.63,12.87,13,33.12,19.9,48.77,7.5,7.18-5.68,12.18-13.64,17.14-21.2q10.29-15.69,20-31.71c12.7-20.89,25-42.16,35.88-64,10.19-20.39,19.06-41.6,24.36-63.82,1.93-8.14,4.6-18.13-3.26-24-3.45-2.56-7.9-3.94-11.9-5.35a154.25,154.25,0,0,0-17.71-5.11c-20.56-4.62-45.64-7.41-64.76,3.35-17.93,10.09-31.12,29.1-41.51,46.35-11.5,19.1-20.72,40.33-24.39,62.43-3.16,19-2.76,41.57,8.14,58.26,4.41,6.75,10.84,12.42,19,13.91,9.46,1.73,19.13-2.3,26.72-7.69C256.38,251.59,265,232,269.74,212.68c10.46-42.13,15.69-91.44-2.32-132.24-3.41-7.72-8.06-15.39-15.06-20.35-8.41-6-18.76-6-28.42-3.54-18.9,4.74-35.53,16.86-47.73,31.81-13.55,16.6-21.88,36.82-26.69,57.56s-7.73,43.58.85,63.86c15.23,36,56.28,60.86,95.26,53.5,21.55-4.06,38.55-17.32,52.13-34,13.42-16.47,25.29-34.83,32.74-54.8,6.95-18.61,9.54-38.83,5.36-58.39C332.37,99.78,322.65,78.3,306,71.69c-9.12-3.61-18.25.18-26.08,5.07A162.8,162.8,0,0,0,257.62,93.7a179.13,179.13,0,0,0-36.3,45.41,175.92,175.92,0,0,0-19.84,54.64c-3.84,21.17-4.35,44.08,3.27,64.5,6.39,17.15,18.88,31.64,37,36.53,17.45,4.7,36.76.62,51.95-8.79,16.48-10.22,28.14-26.87,35.86-44.37a180.4,180.4,0,0,0,14.82-60.7c1.38-21.77-2.79-43.28-14.66-61.78a177.62,177.62,0,0,0-19.45-24.31c-6.8-7.35-13.93-16-23.44-19.88-18.17-7.48-36.42,10.79-48.3,22.42a198.06,198.06,0,0,0-34.73,46.45,262.43,262.43,0,0,0-22.06,54.66c-5.41,19.09-9.66,39.15-10.37,59-.67,18.74,2.9,38.66,16.84,52.27,13,12.69,34.4,21.4,52.65,20.56,8.43-.39,16.61-3.32,22.53-9.5,6.31-6.58,9.38-15.55,11.4-24.25,5.39-23.19,7.65-47.48,8.2-71.24.14-6.18.14-12.38,0-18.56-.12-4.69.54-10.53-1.23-15-3-7.43-16.49-6-22.87-6.06-20.21-.09-40.17,4.71-58.64,12.76a189.48,189.48,0,0,0-52.08,34.31c-15,13.74-29,30-36.25,49.19-3.16,8.38-6.2,18.57-2.42,27.22S121.8,323.88,129.84,328c17.77,9,39,10.56,58.67,10.62,20.69.06,40.53-4.35,56.24-18.5,14.54-13.09,24.05-30.77,33.55-47.58,19.81-35.06,40.38-75.57,26.87-116.58C300,140.27,290,125.79,275.33,117.77c-18.77-10.24-41.09-8.09-61.44-5.14-21.83,3.16-43.6,8.21-63.32,18.36a153.46,153.46,0,0,0-72.5,81c-7.3,19.16-10.93,40.39-3.79,60.15,12.26,33.92,48,65.55,85.8,61.1,1.89-.22,1.92-3.23,0-3-38.29,4.51-75.8-29.61-84.88-65.31-5.1-20.09.71-41.65,9.07-60.06a150.71,150.71,0,0,1,71.83-73.31c19-9,39.73-13.43,60.4-16.33,19.83-2.77,41.83-4.5,59.65,6.45,14.22,8.73,23.27,23.81,27.5,39.66,10.41,38.92-9.3,76.63-27.94,109.63-8.78,15.55-17.51,31.75-30.35,44.39-15.1,14.87-34.31,20.05-55.1,20.2-19.14.13-40-1.17-57.49-9.52-8.3-3.94-17.9-10.24-21.07-19.34-3.36-9.64,2-22.4,6.22-31,8.53-17.32,22.16-32,36.64-44.55a184.73,184.73,0,0,1,48.51-30.59c17.62-7.48,36.62-11.86,55.81-11.79a115.92,115.92,0,0,1,12.9.72c4.62.52,7.06,2.08,7.84,7.54a86,86,0,0,1,.36,9.77q.39,16.61-.6,33.21-1.08,17.85-3.78,35.54c-1.44,9.43-2.87,19.09-5.9,28.15S261.24,321.23,252,325s-19.85,2.58-29.27,0c-18.53-5.15-36.32-15.84-43.65-34.41-6.8-17.2-5.29-36.69-2.47-54.56,5.67-35.81,17.1-71.21,36.47-102A185.3,185.3,0,0,1,247.43,93.2c7.2-6.32,15.55-13.9,25-16.36,11.47-3,20.63,4.52,28.16,12.19,14.19,14.46,28.5,30.22,35.49,49.58s6.61,40.92,2.91,61.08c-6.52,35.56-23,76.76-59.86,90-16.69,6-36.29,5.8-51.26-4.56-16.69-11.55-23.87-32.68-25.61-52.09C199,195.63,211.63,157,232.81,126.39A173.5,173.5,0,0,1,270,87.3c7.2-5.5,15.64-12.19,24.75-13.8,11.23-2,20,6.79,26,15.16,23.76,33.12,14.19,76.71-4.91,109.4-9.7,16.61-21.54,33.5-36.43,45.87a75.22,75.22,0,0,1-58,17c-38.84-5.25-73.55-39.75-73.62-79.75,0-20.24,5-41.53,12.63-60.2s19.44-35.66,35.69-47.71c14.72-10.91,40.26-23.19,56.59-9.09,7.09,6.12,11.24,15.07,14.43,23.68a137.82,137.82,0,0,1,7.34,30.36c2.63,20.53,1.33,41.42-1.66,61.83s-6.42,42-16.68,60.06c-8.92,15.7-30.38,36.7-49.88,25.38-16.79-9.75-19.82-34.77-19.06-52.12.93-21.27,8.07-41.93,17.54-60.83,8.91-17.78,20.26-35.37,34.63-49.24,7.37-7.11,15.93-12.85,25.95-15.37,10.5-2.64,21.79-2.19,32.48-1.11a153,153,0,0,1,32,6.82c4.8,1.57,10.44,3,14.48,6.18,5.56,4.3,4.2,11.12,2.88,17.12-9.16,41.83-30.86,80.07-52.35,116.64-10.74,18.27-21.68,36.7-33.95,54-5.51,7.77-12.41,15.54-22.13,17.65-10.54,2.28-21.43-2.5-29.46-9.09-29.52-24.25-29.44-69.48-20.65-103.23a168.85,168.85,0,0,1,25.1-54.33c11.3-16.12,26.41-30.81,46.82-33.26,20.85-2.5,41.38,6.71,59.14,16.65,8.73,4.89,18.37,10,23.58,18.94s5.59,20.51,5.4,30.56a114.22,114.22,0,0,1-57,96.39c-16.7,9.59-41.18,19.42-59.78,10.16-8.51-4.23-16.05-11.1-22.84-17.67a150.72,150.72,0,0,1-18.56-21.64c-22.52-32.11-30.93-73.41-18.09-111,3.26-9.56,7.84-19.17,14.21-27.08,6.57-8.15,15.39-13,25.4-15.64,20.12-5.36,42.72-6.1,63.42-4.8,9,.56,19,2.12,26,8.34,8.11,7.26,9,19.5,9.25,29.7.6,21.72-5.22,43.18-14,62.9-8.53,19.11-19.87,36.82-31.43,54.21q-9,13.5-18,27L238.12,276c-3.11,4.65-6,10.74-9.91,14.68-7.36,7.35-24.43-5.91-30.41-10.86a154.38,154.38,0,0,1-20-20.63c-14-16.86-22.57-35.42-21.89-57.68.61-20.17,6.22-41,12.8-60,6.84-19.73,17.71-36.51,34.87-48.74,16.29-11.6,36.17-21.34,55.77-25.47,10.23-2.16,21.69-2.67,31.61,1.15,10.48,4,15.29,13.35,18.32,23.56,6.29,21.16,6.78,44.23,6.11,66.14a332.63,332.63,0,0,1-8.58,65.61c-4.62,19.72-9.92,42.09-25.17,56.51-13.25,12.54-32.22,19-50.23,19.83-16.69.81-33.72-2.92-48.11-11.54-16-9.59-27-24.94-32.49-42.64-5.75-18.32-6.18-38.17-3.78-57.1,2.43-19.25,8.61-38,20.43-53.59,20.24-26.63,53.92-42.81,87.38-41.6,20.62.74,39.66,7.87,52,25,10.44,14.45,17.44,31.65,21.65,48.89,8.25,33.83,5.49,70.78-9.37,102.42-7.83,16.67-19,31.06-32.43,43.59-7.62,7.12-15.72,13.79-23.92,20.23-3.2,2.51-5.74,4.51-10.11,4.13a30.52,30.52,0,0,1-7-2c-4.62-1.61-9.2-3.32-13.7-5.22-17.6-7.47-33.87-18.42-41.87-36.44s-8.36-39.48-6.31-58.82a169.08,169.08,0,0,1,16.84-57.51c8.72-17.45,20.64-35.58,36.65-47.15,17.39-12.57,39.59-12.38,59.88-8.67,18.83,3.44,42.54,12.15,50,31.62,6.6,17.28,1.56,38.75-4.34,55.58A139,139,0,0,1,315,256c-25.54,28.41-62.37,44.3-100.5,44.34-19,0-39.59-3.48-56.49-12.5-19.42-10.36-22-31.14-21.35-51.16C137.93,197.83,149.74,158,175.28,128c23.92-28.09,60.45-46.81,97.82-44.68,4.82.27,10.27.49,14.5,3.07,4.87,3,7.73,8.75,10.58,13.5a275.44,275.44,0,0,1,14.71,28c9.08,20,15.89,41.18,19.13,62.93,6,40.42-1.33,86.27-29.57,117.47-27.06,29.9-73.29,21.37-105.08,4-29.44-16.06-53.17-42.88-64.92-74.35-12.58-33.7-10.83-71.54,2.2-104.82A152.65,152.65,0,0,1,163,86.93c6.38-7.1,13.42-13.86,21.6-18.86,9.77-6,20.43-8.12,31.76-8.42,10.27-.26,21.52-.65,31.5,2C258,64.34,265.49,71.52,271.1,80.1c11.76,18,17.31,39.86,17.15,61.2-.33,44.16-24.18,82.13-46.18,118.73-11.3,18.79-22.81,37.5-35.72,55.25-5.86,8.06-12.18,16.15-20.36,22s-17.92,8.78-27.9,9.58c-18,1.44-37.62-1.76-54.88-6.73-8.7-2.5-17.31-6.32-23.54-13.09-7.12-7.74-9.52-18.27-10.36-28.47-1.67-20.42-.79-41.52,1.17-61.88,2-21,6.13-41.83,13.48-61.6,13-35,36.58-64.93,65-88.79a292.74,292.74,0,0,1,44.93-30.89C203.37,50.08,214,44.77,225,49c9.59,3.7,17.36,12.2,23.7,20,13.13,16.2,23.78,35.95,31.55,55.26,8.65,21.51,9.4,43.09,4.19,65.58-7.7,33.29-23,71.09-54.57,88.27a70.13,70.13,0,0,1-57.05,4c-17.81-6.49-31.58-20.52-40.51-36.94-9.85-18.11-13.57-38.74-14.18-59.17a331.88,331.88,0,0,1,4.9-65.56c6.52-38,25-79.18,64.47-92.18,18.45-6.08,44.93-6.93,60.06,7.32,7.24,6.82,11.51,16.32,15,25.46a157,157,0,0,1,7.91,29.41c7.22,42.75-2.65,86.41-20.24,125.44a289.19,289.19,0,0,1-30.33,52.89c-11.74,15.93-26.1,32.55-44.62,40.63-19.77,8.63-42.27,4.61-61.81-2.59-16.59-6.12-32.36-15.09-45.48-27C54.45,267.61,44,252.21,39.22,234.55c-5.53-20.27-4.73-42.27-2.41-63,4-36.1,17-76.71,46.23-100.4,16.82-13.62,37.87-15.06,58.52-11.56A139,139,0,0,1,195.62,81.3c1.61,1.07,3.12-1.53,1.52-2.59Z"/><path class="cls-2" d="M118.43,208.58l-1-7.79.27-.33c1.11-1.33,3.21-2.43,6.42-3.33v-3.48H100.72l-2.49-7.54,18-38.38,10.17,4.38-11,25.85a25.5,25.5,0,0,1-3.55,6.06,25.83,25.83,0,0,1,5.75-.57h6.46V172.73c0-7.2,1-12.23,2.94-15.38l.33-.52,10,1.06v25.56h6.07v10.2h-6.07v4a11.19,11.19,0,0,1,4.28,2.82l.28.34-1,7.79Z"/><path class="cls-1" d="M116.77,149l8.37,3.61-10.58,24.93a24,24,0,0,1-3.61,6.06l-.74.91.41.9a21.38,21.38,0,0,1,7.06-1h7.46V172.73q0-10.41,2.78-14.84l8.53.9v25.66h6.07v8.2h-6.07v5.66A11,11,0,0,1,141,201.1l-.82,6.48H119.32l-.82-6.48c1-1.26,3.25-2.33,6.64-3.2v-5.25h-23.7l-2.13-6.48L116.77,149m-1-2.6-.83,1.75L97.5,185.32l-.34.72.25.76,2.13,6.48.45,1.37h23.15v1.74c-3,.92-5,2.05-6.19,3.43l-.55.67.11.86.82,6.48.22,1.75H141.9l.23-1.75.82-6.48.11-.87-.57-.67a11.17,11.17,0,0,0-4-2.83v-2.33h6.07v-12.2h-6.07V157l-1.79-.19-8.53-.9-1.23-.13-.67,1c-2.08,3.31-3.09,8.51-3.09,15.91v9.72h-5.46a32.1,32.1,0,0,0-3.52.19,30.44,30.44,0,0,0,2.23-4.28L127,153.42l.77-1.83-1.82-.79-8.36-3.6-1.78-.77Z"/><path class="cls-2" d="M167.49,209.23c-7.57,0-13-2.33-16.08-6.92s-4.56-11.89-4.56-22.53,1.73-18.25,5.14-23.05,9.12-7.39,16.73-7.39,13,2.21,16.14,6.57,4.58,11.59,4.58,22.23-1.76,18.35-5.22,23.36S175,209.23,167.49,209.23ZM168,159c-2.84,0-4.56,1.19-5.41,3.74-.94,2.84-1.42,8.22-1.42,16s.53,13.37,1.59,16.58c1,3,2.67,4.32,5.36,4.32a5.32,5.32,0,0,0,5-2.71c1.38-2.3,2.08-7.78,2.08-16.3s-.54-14.5-1.59-17.55C172.59,160.27,170.82,159,168,159Z"/><path class="cls-1" d="M168.72,150.34q10.93,0,15.33,6.15t4.39,21.65q0,15.5-5.05,22.79t-15.9,7.3q-10.87,0-15.25-6.48t-4.39-22q0-15.5,5-22.47t15.91-7m-.62,50.27a6.3,6.3,0,0,0,5.82-3.2q2.22-3.69,2.22-16.81t-1.64-17.88A6.39,6.39,0,0,0,168,158c-3.26,0-5.37,1.47-6.36,4.43s-1.47,8.39-1.47,16.31.54,13.56,1.64,16.89,3.2,5,6.31,5m.62-52.27c-7.95,0-13.85,2.63-17.54,7.81s-5.33,12.77-5.33,23.63,1.55,18.4,4.73,23.1c3.3,4.88,9,7.35,16.91,7.35s13.81-2.74,17.55-8.16c3.63-5.25,5.4-13.08,5.4-23.93s-1.56-18.32-4.76-22.81c-3.31-4.64-9-7-17-7Zm-.62,50.27c-1.5,0-3.36-.42-4.41-3.63s-1.54-8.59-1.54-16.27.46-13,1.37-15.68c.72-2.15,2-3.06,4.46-3.06s3.81,1.05,4.63,3.41c1,2.94,1.53,8.74,1.53,17.22,0,10.38-1,14.31-1.93,15.78a4.35,4.35,0,0,1-4.11,2.23Z"/><path class="cls-2" d="M211.33,208.58l-1-7.79.27-.33c1.1-1.33,3.21-2.43,6.41-3.33v-3.48H193.61l-2.48-7.54,18.05-38.38,10.16,4.38-11,25.85a25.84,25.84,0,0,1-3.55,6.06,25.74,25.74,0,0,1,5.74-.57H217V172.73c0-7.2,1-12.23,2.94-15.38l.34-.52,10,1.06v25.56h6.07v10.2h-6.07v4a11.06,11.06,0,0,1,4.27,2.82l.29.34-1,7.79Z"/><path class="cls-1" d="M209.67,149l8.36,3.61-10.57,24.93a24.3,24.3,0,0,1-3.61,6.06l-.74.91.41.9a21.36,21.36,0,0,1,7-1H218V172.73q0-10.41,2.79-14.84l8.53.9v25.66h6.07v8.2h-6.07v5.66a11.06,11.06,0,0,1,4.51,2.79l-.82,6.48H212.21l-.82-6.48q1.56-1.89,6.64-3.2v-5.25H194.34l-2.13-6.48L209.67,149m-1-2.6-.82,1.75L190.4,185.32l-.34.72.25.76,2.13,6.48.45,1.37H216v1.73c-3,.93-5,2.06-6.18,3.44l-.55.67.11.86.82,6.48.22,1.75H234.8l.22-1.75.82-6.48.11-.87-.56-.67a11.26,11.26,0,0,0-4-2.83v-2.33h6.07v-12.2h-6.07V157l-1.79-.19-8.53-.9-1.24-.13-.66,1c-2.08,3.31-3.1,8.51-3.1,15.91v9.72h-5.46a32,32,0,0,0-3.51.19,30.44,30.44,0,0,0,2.23-4.28l10.59-24.94.77-1.83-1.82-.79-8.37-3.6-1.78-.77Z"/></svg>