<svg width="20" height="6" xmlns="http://www.w3.org/2000/svg"><g fill="#A17049" fill-rule="evenodd"><path d="M11.567 4.982a.832.832 0 00.595.258l1.774-.006a.714.714 0 00.094.006.35.35 0 00.065-.007l2.654-.009c.605 0 1.195-.246 1.663-.696.431-.414.688-.942.689-1.413 0-.453-.253-.978-.678-1.403-.465-.465-1.045-.721-1.632-.721h-2.76V.99h-1.867c-.22 0-.632.094-.894.727-.344.831-.347 2.622.297 3.265zM16.79 1.84c.488 0 .857.297 1.033.474.295.295.43.623.43.803 0 .237-.169.551-.428.802-.179.17-.556.46-1.075.459l-2.7.008h-.013c-.095-.083-.287-.515-.287-1.27 0-.773.202-1.209.294-1.277l2.746.001zm-4.614 0h.915c-.254.728-.254 1.822-.001 2.55l-.913.003c-.002-.002-.006-.004-.01-.009-.208-.208-.358-1.024-.248-1.807.07-.507.212-.7.257-.737zM3.05 1.812l6.746.027a.42.42 0 00.423-.423.428.428 0 00-.126-.301.428.428 0 00-.302-.127L3.046.961a.42.42 0 00-.424.424.43.43 0 00.428.427zM8.514 3.116a.422.422 0 00-.424-.424H1.37a.423.423 0 100 .848h6.72c.234 0 .424-.19.424-.424zM10.096 4.518a.422.422 0 00-.3-.125H3.078a.423.423 0 100 .848h6.719a.423.423 0 00.3-.723z"/></g></svg>