<svg width="31" height="30" xmlns="http://www.w3.org/2000/svg"><g fill="#3B2B1E" fill-rule="evenodd"><path d="M15.724 29.76C7.56 29.76.917 23.115.917 14.951.917 6.787 7.561.145 15.724.145c8.165 0 14.807 6.644 14.807 14.807 0 8.164-6.642 14.807-14.807 14.807zm0-28.454C8.201 1.306 2.08 7.427 2.08 14.95c0 7.525 6.121 13.646 13.644 13.646s13.644-6.12 13.644-13.644c0-7.525-6.12-13.646-13.644-13.646z"/><path d="M20.773 16.112H7.677a1.163 1.163 0 010-2.326h12.915l-2.881-2.488a1.162 1.162 0 111.52-1.76l5.3 4.58a1.165 1.165 0 01.014 1.747l-3.427 3.056a.742.742 0 01-.053.044l-1.808 1.431a1.16 1.16 0 01-1.634-.19 1.163 1.163 0 01.19-1.635l1.783-1.41 1.177-1.049z"/></g></svg>