<svg width="51" height="25" xmlns="http://www.w3.org/2000/svg"><defs><linearGradient x1="39.462%" y1="129.365%" x2="68.8%" y2="-38.996%" id="a"><stop stop-color="#3B2B1E" offset="0%"/><stop stop-color="#BE8455" offset="100%"/></linearGradient></defs><path d="M434.042 1768.435l.315.813 18.239-8.428-.366-.791-18.188 8.406zm1.665 3.512l.293.861 12.769-5.891-.382-.829-12.68 5.859zm-12.341 4.604l.314.68a3.443 3.443 0 004.57 1.68l4.93-2.278-.424-.917-3.028 1.4c-.863.398-1.777.258-2.042-.313-.264-.572.221-1.359 1.084-1.758l3.028-1.4-1.031-2.232-3.028 1.399c-.864.4-1.687.457-1.837.128-.153-.328.425-.918 1.289-1.317l3.028-1.4-.242-.521-4.93 2.278a3.445 3.445 0 00-1.681 4.57v.001zm7.837 3.95l-1.74 1.117c.936 1.383 2.421.72 2.48 1.795.048.853-2.843 1.77-4.455-.519l-.833.545c-.948.625 1.86 3.235 4.047 2.224 2.753-1.243 2.888-2.998 2.342-4.18-.414-.893-.876-1.589-1.841-.983zm2.294-1.577a1.04 1.04 0 00-.318.741c-.007.345.292.851.376 1.056.956 2.068.834 4-2.296 5.445l-.527.244c-2.05.947-3.85-.077-4.913-1.204a1.027 1.027 0 00-1.077-.136 1.01 1.01 0 00-.51.53c-.546 1.135-.166 3.09 3.055 7.358 1.664 2.206-1.138 3.322-1.138 3.322l-7.408 3.424s-2.512 1.378-2.63-1.58c-.062-1.51-.67-7.62-.838-9.555-.688-7.918 5.466-10.347 5.466-10.347l.797-.345-.53-1.143c-3.329 1.544-5.302-1.457-4.66-2.135.81-.851 1.568.968 3.51.072a3.633 3.633 0 001.562-1.349c.131-.212.238-.436.317-.67a.985.985 0 01.545-.671l24.783-11.452-.25-.543c-.17-.37.018-.745.427-.836l2.606-.586a.98.98 0 01.88.27l.792-.367a.984.984 0 011.307.48l1.555 3.365a.987.987 0 01-.48 1.306l-4.59 2.123c.09.084.164.185.219.304l.697 1.508a.984.984 0 01-.478 1.307l-14.039 6.487c.762 1.65-.312 2.315-2.212 3.578z" transform="rotate(25 4213.3 -26.24)" fill="url(#a)" fill-rule="evenodd"/></svg>