
<svg  height="300" width="300" viewBox="0 0 163 67" version="1.1" xmlns="http://www.w3.org/2000/svg" xmlns:xlink="http://www.w3.org/1999/xlink">
    <g stroke="none" stroke-width="1" fill="none" fill-rule="evenodd">
        <g transform="translate(-443.000000, -645.000000)" fill="currentColor">
            <path d="M481.885837,645 C480.27599,645 478.90114,645.56887 477.761287,646.710643 C476.619323,647.850879 476.05026,649.225729 476.05026,650.835577 C476.05026,652.445424 476.619323,653.822386 477.761287,654.962239 C478.90114,656.102091 480.27599,656.672882 481.885837,656.672882 C483.495685,656.672882 484.870535,656.102091 486.012499,654.962239 C487.152352,653.822386 487.723142,652.445232 487.723142,650.835577 C487.723142,649.225729 487.152352,647.850879 486.012499,646.710835 C484.870535,645.56887 483.495493,645 481.885837,645 Z M462.324607,659.827492 L462.324607,650.168407 L452.261381,650.168407 L452.261381,657.830206 C452.261381,658.933004 451.366701,659.827492 450.264095,659.827492 L443.263899,659.827492 L443.263899,667.878841 L452.261381,667.878841 L452.261381,683.373502 C452.261381,685.164781 452.564535,686.683817 453.168348,687.937136 C453.770241,689.188344 454.609243,690.206666 455.683243,690.987879 C456.75705,691.771203 458.008258,692.341994 459.440897,692.698522 C460.869313,693.057545 462.435962,693.236673 464.136429,693.236673 C465.298937,693.236673 466.484292,693.168708 467.689997,693.034506 C468.880783,692.904507 470.052122,692.634759 471.179824,692.230831 L471.179824,683.843305 C470.732484,684.247447 470.072802,684.505099 469.200969,684.614342 C468.328944,684.727809 467.624144,684.783294 467.088296,684.783294 C466.014297,684.783294 465.15264,684.639301 464.505437,684.346322 C463.856122,684.057951 463.37576,683.643634 463.06243,683.105482 C462.7491,682.569826 462.547125,681.932607 462.458617,681.194592 C462.367805,680.456769 462.324607,679.640614 462.324607,678.745935 L462.324607,667.878841 L476.854512,667.884984 L476.854512,692.430694 L486.917546,692.430694 L486.917546,659.827492 L462.324607,659.827492 Z M533.42073,645 C531.810882,645 530.436032,645.56887 529.29618,646.710643 C528.154215,647.850879 527.585153,649.225729 527.585153,650.835577 C527.585153,652.445424 528.154215,653.822386 529.29618,654.962239 C530.436032,656.102091 531.810882,656.672882 533.42073,656.672882 C535.030769,656.672882 536.405619,656.102091 537.547392,654.962239 C538.687436,653.822386 539.258035,652.445232 539.258035,650.835577 C539.258035,649.225729 538.687436,647.850879 537.547392,646.710835 C536.405619,645.56887 535.030769,645 533.42073,645 Z M515.929934,659.827492 L508.282535,681.965629 L508.148717,681.965629 L499.897313,659.827492 L489.028299,659.827492 L502.513195,692.430694 L513.180234,692.430694 L522.878485,667.878841 L528.390557,667.878841 L528.390557,692.430694 L538.451479,692.430694 L538.451479,659.827492 L515.929934,659.827492 Z M591.556477,659.827492 L584.37696,681.361817 L584.245062,681.361817 L575.857729,659.827492 L558.477136,659.827492 L558.477136,650.168407 L548.41391,650.168407 L548.41391,657.838461 C548.41391,658.937036 547.523454,659.827492 546.424879,659.827492 L541.9726,659.827492 L541.9726,667.878841 L548.41391,667.878841 L548.41391,683.373502 C548.41391,685.164781 548.71476,686.683817 549.318957,687.937136 C549.92277,689.188344 550.761772,690.206666 551.83558,690.987879 C552.907467,691.771203 554.160787,692.341994 555.591314,692.698522 C557.021842,693.057545 558.588299,693.236673 560.286847,693.236673 C561.449546,693.236673 562.634517,693.168708 563.842526,693.034506 C565.033308,692.904486 566.204645,692.634738 567.332353,692.230831 L567.332353,683.843305 C566.885013,684.247447 566.225523,684.505099 565.35369,684.614342 C564.479554,684.727809 563.776673,684.783294 563.238713,684.783294 C562.166826,684.783294 561.305361,684.639301 560.657966,684.346322 C560.008651,684.057951 559.526369,683.643634 559.214959,683.105482 C558.901629,682.569826 558.699654,681.932607 558.610954,681.194592 C558.520718,680.456769 558.477136,679.640614 558.477136,678.745935 L558.477136,667.878841 L568.490637,667.878841 L579.27959,692.698522 L578.541576,694.578501 C578.182936,695.471261 577.849063,696.254585 577.535733,696.926555 C577.222403,697.596221 576.830741,698.167203 576.360746,698.637198 C575.890751,699.105273 575.299034,699.463912 574.583866,699.709085 C573.868698,699.954258 572.951364,700.129738 571.834166,700.129738 L567.464443,700.129738 L567.464443,708.962108 C567.464443,708.962108 569.243051,708.985147 571.817655,708.985147 C575.332056,708.985147 577.622321,708.586957 579.186666,708.009831 C580.640041,707.476095 581.839603,706.663972 582.802055,705.746445 C583.762588,704.829303 584.55628,703.701737 585.18294,702.35991 C585.8096,701.01789 586.458915,699.473896 587.128772,697.730231 L601.887531,659.827492 L591.556477,659.827492 Z M476.863152,700.109963 L479.307777,700.109963 L479.307777,704.246993 L484.057067,704.246993 L484.057067,700.109963 L486.501693,700.109963 L486.501693,711.205911 L484.057067,711.205911 L484.057067,706.409391 L479.307777,706.409391 L479.307777,711.205911 L476.863152,711.205911 L476.863152,700.109963 Z M491.704275,700.109963 L499.242431,700.109963 L499.242431,702.367014 L494.1489,702.367014 L494.1489,704.434376 L498.960011,704.434376 L498.960011,706.691619 L494.148708,706.691619 L494.148708,708.948669 L499.524466,708.948669 L499.524466,711.205911 L491.704275,711.205911 L491.704275,700.109963 Z M508.611416,700.109963 L510.633469,700.109963 L515.423653,711.205911 L512.666082,711.205911 L511.709581,708.854017 L507.399375,708.854017 L506.475897,711.205911 L503.779762,711.205911 L508.611416,700.109963 Z M509.514352,703.337914 L508.1683,706.786462 L510.878834,706.786462 L509.514352,703.337914 Z M519.776097,700.109963 L522.220723,700.109963 L522.220723,708.948669 L526.749223,708.948669 L526.749223,711.205911 L519.776097,711.205911 L519.776097,700.109963 Z M532.941327,702.272554 L529.775198,702.272554 L529.775198,700.110155 L538.552274,700.110155 L538.552274,702.272554 L535.385953,702.272554 L535.385953,711.205911 L532.941327,711.205911 L532.941327,702.272554 Z M543.118981,700.109963 L545.563606,700.109963 L545.563606,704.246993 L550.312896,704.246993 L550.312896,700.109963 L552.757522,700.109963 L552.757522,711.205911 L550.312896,711.205911 L550.312896,706.409391 L545.563606,706.409391 L545.563606,711.205911 L543.118981,711.205911 L543.118981,700.109963 Z M604.021515,661.471513 L604.264192,661.471513 C604.383802,661.471513 604.47999,661.440411 604.552755,661.378398 C604.625328,661.316192 604.661422,661.237284 604.661422,661.14148 C604.661422,661.029165 604.629359,660.948721 604.56485,660.899955 C604.500533,660.851381 604.398778,660.82719 604.259584,660.82719 L604.021515,660.82719 L604.021515,661.471513 Z M604.996063,661.132457 C604.996063,661.252259 604.964192,661.358238 604.900643,661.450202 C604.837286,661.542358 604.747626,661.610707 604.632431,661.655633 L605.166743,662.542633 L604.78948,662.542633 L604.324861,661.747789 L604.021515,661.747789 L604.021515,662.542633 L603.68937,662.542633 L603.68937,660.542083 L604.275327,660.542083 C604.523764,660.542083 604.705964,660.590657 604.822119,660.687997 C604.938081,660.785144 604.996063,660.933362 604.996063,661.132457 Z M602.858239,661.541398 C602.858239,661.800011 602.923516,662.042496 603.053686,662.267509 C603.180553,662.48951 603.364765,662.673323 603.587038,662.799709 C603.806827,662.927806 604.056838,662.994882 604.31123,662.994005 C604.566188,662.995467 604.816803,662.928004 605.036573,662.79875 C605.256441,662.671445 605.439441,662.489172 605.567621,662.269813 C605.698072,662.0493 605.765973,661.797409 605.764028,661.541206 C605.765519,661.286245 605.698054,661.035622 605.568773,660.815863 C605.441592,660.595965 605.259372,660.412951 605.040029,660.284815 C604.819452,660.154326 604.567507,660.086362 604.31123,660.088216 C604.050697,660.088216 603.80898,660.153493 603.585886,660.283663 C603.365945,660.410788 603.182918,660.593021 603.054838,660.812407 C602.924304,661.032965 602.856337,661.284923 602.858239,661.541206 L602.858239,661.541398 Z M602.622666,661.541398 C602.622666,661.241892 602.697542,660.961008 602.847296,660.699132 C602.993437,660.440634 603.206788,660.226487 603.46474,660.079384 C603.721612,659.929426 604.013985,659.851063 604.311422,659.85245 C604.610544,659.85245 604.891236,659.927327 605.153304,660.07708 C605.411738,660.223306 605.625865,660.436637 605.773052,660.694524 C605.92287,660.951455 606.001224,661.243788 605.999986,661.541206 C606.000893,661.832368 605.92578,662.118724 605.782075,662.371953 C605.636738,662.631141 605.433227,662.838492 605.171159,662.994005 C604.909283,663.14971 604.62264,663.227466 604.31123,663.227466 C604.009456,663.229708 603.712815,663.149374 603.453412,662.995157 C603.197683,662.846523 602.98641,662.632135 602.841536,662.374257 C602.696991,662.120489 602.621524,661.833251 602.622666,661.541206 L602.622666,661.541398 Z" id="Shape"></path>
        </g>
    </g>
</svg>