<svg height="300" width="300" viewBox="0 0 156 42" version="1.1" xmlns="http://www.w3.org/2000/svg" xmlns:xlink="http://www.w3.org/1999/xlink">
    <g stroke="none" stroke-width="1" fill="none" fill-rule="evenodd">
        <g transform="translate(-792.000000, -654.000000)" fill="currentColor">
            <g transform="translate(791.576229, 654.000000)">
                <g transform="translate(0.710064, 0.000000)">
                    <polyline points="113.234435 8.84743544 94.6003773 8.84743544 94.6003773 0.99994659 122.787649 0.99994659 122.787649 8.50494359 106.695342 41.2590941 96.7438375 41.2590941 113.234435 8.84743544"></polyline>
                    <path d="M14.2052254,32.2253905 L29.8405557,18.1803384 C30.6380999,17.4607207 31.4346821,16.6448974 32.2312643,15.7347926 C33.0249603,14.82565 33.4232514,13.7645024 33.4232514,12.549426 C33.4232514,11.186193 32.9306788,10.1144629 31.9455337,9.33808388 C30.9584645,8.56170488 29.8020735,8.1720723 28.4773227,8.1720723 C26.8841583,8.1720723 25.6402202,8.66464485 24.7532048,9.64978995 C23.859455,10.6378212 23.3572619,11.8509735 23.2447014,13.290209 L14.7170391,12.6648727 C14.8305617,10.5800979 15.2644488,8.76950893 16.025435,7.23406793 C16.7835349,5.69862693 17.7869591,4.41909277 19.0366695,3.39450338 C20.287342,2.37087605 21.7573632,1.60315555 23.444809,1.09230394 C25.1284066,0.580490277 26.9582366,0.324583444 28.931413,0.324583444 C30.7506604,0.324583444 32.4573474,0.580490277 34.0476255,1.09230394 C35.6407899,1.60315555 37.0242261,2.3631796 38.1988962,3.36660377 C39.3754904,4.37195204 40.2952157,5.63224509 40.9590341,7.14748291 C41.6228526,8.66464485 41.9528377,10.4280931 41.9528377,12.4359034 C41.9528377,13.7250582 41.8200741,14.8910697 41.5545467,15.9339382 C41.2890193,16.9768066 40.9195899,17.9234695 40.4472205,18.777775 C39.9710029,19.6311185 39.4139726,20.4180801 38.7693952,21.1367358 C38.1248179,21.8573155 37.4225172,22.5586542 36.6644172,23.2417138 L24.4395746,33.7598694 L42.2962917,33.7598694 L42.2962917,41.2667905 L14.2052254,41.2667905 L14.2052254,32.2253905" id="Fill-2"></path>
                    <path d="M115.586662,38.7404321 C115.586662,38.3642683 115.657854,38.0083077 115.797352,37.6725502 C115.933002,37.3348686 116.127337,37.0433657 116.373623,36.7951553 C116.622796,36.5488691 116.914299,36.3545338 117.251018,36.2150357 C117.587738,36.0784238 117.94466,36.0072317 118.319862,36.0072317 C118.695064,36.0072317 119.051987,36.0784238 119.388706,36.2150357 C119.725426,36.3545338 120.016928,36.5488691 120.266101,36.7951553 C120.512387,37.0433657 120.706722,37.3348686 120.842372,37.6725502 C120.98187,38.0083077 121.053063,38.3642683 121.053063,38.7404321 C121.053063,39.1165959 120.98187,39.4725565 120.842372,39.809276 C120.706722,40.1459956 120.512387,40.4374985 120.266101,40.6837847 C120.016928,40.9329572 119.725426,41.1244063 119.388706,41.2629423 C119.051987,41.4034024 118.695064,41.4707463 118.319862,41.4707463 C117.94466,41.4707463 117.587738,41.4034024 117.251018,41.2629423 C116.914299,41.1244063 116.622796,40.9329572 116.373623,40.6837847 C116.127337,40.4374985 115.933002,40.1459956 115.797352,39.809276 C115.657854,39.4725565 115.586662,39.1165959 115.586662,38.7404321" id="Fill-3"></path>
                    <path d="M137.518647,32.3446854 C137.043391,32.3446854 136.446917,32.3639265 135.734033,32.406257 C135.019226,32.4485874 134.332318,32.5678823 133.675234,32.7622176 C133.014302,32.959439 132.457272,33.2547901 131.994523,33.6463468 C131.530812,34.0379035 131.300881,34.5862753 131.300881,35.2847278 C131.300881,36.0389795 131.621245,36.599858 132.265822,36.9654392 C132.9104,37.3281342 133.583839,37.5099628 134.284215,37.5099628 C134.898969,37.5099628 135.494482,37.4291501 136.067867,37.2607903 C136.6451,37.0924306 137.155952,36.8528787 137.603308,36.5450208 C138.050664,36.237163 138.409511,35.8456063 138.675038,35.3693887 C138.940565,34.8931711 139.073329,34.3332546 139.073329,33.6886773 L139.073329,32.3446854 L137.518647,32.3446854 Z M139.073329,38.7308115 L138.98963,38.7308115 C138.290216,39.8227448 137.357022,40.6058582 136.193896,41.0820758 C135.031733,41.5582934 133.807036,41.7978453 132.518843,41.7978453 C131.566408,41.7978453 130.650531,41.6650816 129.766402,41.3995542 C128.885158,41.1340268 128.107817,40.7318875 127.434378,40.2017948 C126.760939,39.67074 126.228923,39.0088457 125.837366,38.2257323 C125.445809,37.4416568 125.248588,36.5315521 125.248588,35.495418 C125.248588,34.3168997 125.46505,33.322134 125.898937,32.5091969 C126.332825,31.700108 126.922565,31.0257069 127.66431,30.4956142 C128.406055,29.9607112 129.253626,29.5499134 130.206061,29.2555243 C131.158496,28.9601732 132.146528,28.7427486 133.169193,28.6042126 C134.19282,28.4647145 135.212599,28.3800536 136.236227,28.3511919 C137.259854,28.3223302 138.205555,28.3088615 139.073329,28.3088615 C139.073329,27.1890286 138.675038,26.2981649 137.874608,25.6410808 C137.078025,24.9830347 136.132325,24.6530496 135.038467,24.6530496 C134.002333,24.6530496 133.056632,24.8704742 132.204251,25.3043613 C131.349945,25.7372864 130.585111,26.333761 129.914558,27.0918609 L126.553135,23.6467392 C127.728767,22.5519198 129.101621,21.7322483 130.669772,21.1877247 C132.236961,20.641277 133.862835,20.3680532 135.543546,20.3680532 C137.392618,20.3680532 138.911704,20.5989466 140.102729,21.0616954 C141.294716,21.5215581 142.247151,22.2017315 142.960034,23.0983675 C143.675804,23.9959655 144.1703,25.0936711 144.452183,26.3991808 C144.731179,27.6998802 144.873563,29.2064595 144.873563,30.9131464 L144.873563,41.291804 L139.073329,41.291804 L139.073329,38.7308115 Z" id="Fill-4"></path>
                    <path d="M148.908425,41.292766 L155.210852,41.292766 L155.210852,20.8712084 L148.908425,20.8712084 L148.908425,41.292766 Z M148.403346,14.4417897 C148.403346,13.4345173 148.759306,12.5734774 149.476038,11.85867 C150.187959,11.1448246 151.048999,10.7859778 152.06012,10.7859778 C153.06643,10.7859778 153.928432,11.1448246 154.644202,11.85867 C155.356123,12.5734774 155.715932,13.4345173 155.715932,14.4417897 C155.715932,15.4529103 155.356123,16.3139502 154.644202,17.0268335 C153.928432,17.742603 153.06643,18.0985637 152.06012,18.0985637 C151.048999,18.0985637 150.187959,17.742603 149.476038,17.0268335 C148.759306,16.3139502 148.403346,15.4529103 148.403346,14.4417897 Z" id="Fill-5"></path>
                    <path d="M63.7741865,10.6522521 L63.3932125,10.6522521 L55.7467933,26.0268652 L64.0166246,26.0268652 L63.7741865,10.6522521 Z M64.0166246,33.1912945 L46.202238,33.1912945 L46.202238,26.0268652 L58.7897756,1.00764304 L72.2075674,1.00764304 L72.2075674,26.0268652 L77.3786171,26.0268652 L77.3786171,33.1912945 L72.2075674,33.1912945 L72.2075674,41.2667905 L64.0166246,41.2667905 L64.0166246,33.1912945 Z" id="Fill-6"></path>
                    <polyline points="80.0829558 1.00860509 89.2965639 1.00860509 89.2965639 41.2129154 80.0829558 41.2129154 80.0829558 38.4960699 85.2761328 38.4960699 85.2761328 3.72545056 80.0829558 3.72545056 80.0829558 1.00860509"></polyline>
                    <polyline points="9.3891743 3.72545056 4.1959973 3.72545056 4.1959973 38.4960699 9.3891743 38.4960699 9.3891743 41.2129154 0.175566265 41.2129154 0.175566265 1.00860509 9.3891743 1.00860509 9.3891743 3.72545056"></polyline>
                </g>
            </g>
        </g>
    </g>
</svg>