<svg height="300" width="300" xmlns="http://www.w3.org/2000/svg" viewBox="0 0 1051 253"><path d="M937.956 85.44c5.947 0 10.843-3.093 11.504-7.087l5.872-66.401c0-6.565-7.69-11.952-17.356-11.952-9.658 0-17.34 5.387-17.34 11.952l5.868 66.4c.645 3.995 5.541 7.089 11.472 7.089h-.02M902.068 106.182c2.983-5.144 2.759-10.925-.386-13.495L847.103 54.4c-5.675-3.286-14.183.67-19.012 9.044-4.845 8.363-3.987 17.706 1.672 20.992l60.435 28.14c3.778 1.4 8.93-1.295 11.89-6.435l-.02.04M973.877 106.146c2.979 5.14 8.103 7.836 11.885 6.435l60.435-28.14c5.695-3.286 6.505-12.63 1.704-20.992-4.853-8.367-13.377-12.33-19.036-9.044l-54.583 38.286c-3.121 2.566-3.353 8.35-.386 13.494l-.023-.04M937.956 168.387c5.947 0 10.843 3.066 11.504 7.065l5.872 66.393c0 6.584-7.69 11.96-17.356 11.96-9.658 0-17.34-5.376-17.34-11.96l5.868-66.393c.645-3.999 5.541-7.065 11.472-7.065h-.02M973.877 147.643c2.979-5.156 8.103-7.828 11.885-6.411l60.435 28.12c5.695 3.29 6.505 12.64 1.704 21.011-4.853 8.34-13.377 12.315-19.036 9.033l-54.583-38.25c-3.121-2.586-3.353-8.375-.386-13.515h-.023M902.068 147.635c2.983 5.136 2.759 10.925-.386 13.515l-54.579 38.25c-5.675 3.282-14.183-.693-19.012-9.033-4.845-8.37-3.987-17.722 1.672-21.012l60.435-28.12c3.778-1.417 8.93 1.256 11.89 6.412h-.02" class="st0"/><g><path d="M593.683 161.024c0 2.038-.18 4.14-.74 5.986-2.314 7.666-10.252 14.148-20.181 14.148-8.28 0-14.857-4.703-14.857-14.636 0-15.204 16.734-19.403 35.782-19.296v13.798h-.004zm29.88-26.495c0-25.07-10.713-47.128-46.91-47.128-18.579 0-33.326 5.218-41.374 9.87l5.896 20.154c7.355-4.644 19.08-8.489 30.174-8.489 18.36-.051 21.366 10.398 21.366 17.085v1.581c-40.02-.059-65.319 13.798-65.319 42.028 0 17.25 12.885 33.406 35.283 33.406 13.762 0 25.29-5.494 32.189-14.302h.68s4.566 19.123 29.766 11.807c-1.315-7.954-1.748-16.443-1.748-26.652v-39.36M0 53.26s26.152 107.162 30.328 124.553c4.872 20.3 13.652 27.773 38.954 22.728l16.329-66.437c4.14-16.51 6.91-28.28 9.58-45.058h.464c1.873 16.954 4.53 28.6 7.938 45.114 0 0 6.643 30.162 10.051 45.999 3.412 15.832 12.909 25.817 37.695 20.382L190.25 53.256h-31.406l-13.29 63.682c-3.574 18.528-6.813 33.02-9.312 49.97h-.445c-2.27-16.797-5.163-30.702-8.792-48.758L113.18 53.256H80.45l-14.798 63.257c-4.187 19.229-8.115 34.747-10.602 51.13h-.453c-2.554-15.427-5.954-34.94-9.634-53.543 0 0-8.784-45.247-11.874-60.844H0M249.658 161.024c0 2.038-.181 4.14-.748 5.986-2.31 7.666-10.252 14.148-20.181 14.148-8.281 0-14.85-4.703-14.85-14.636 0-15.204 16.73-19.403 35.783-19.296v13.798h-.004zm29.875-26.495c0-25.07-10.713-47.128-46.9-47.128-18.584 0-33.343 5.218-41.387 9.87l5.888 20.154c7.355-4.644 19.08-8.489 30.178-8.489 18.371-.051 21.378 10.398 21.378 17.085v1.581c-40.037-.059-65.323 13.798-65.323 42.028 0 17.25 12.877 33.406 35.259 33.406 13.782 0 25.302-5.494 32.209-14.302h.673s4.577 19.123 29.772 11.807c-1.318-7.954-1.747-16.443-1.747-26.652v-39.36M329.393 169.277V53.26h-29.914v147.286h29.914v-31.268M720.72 53.26v108.65c0 14.986 2.826 25.475 8.851 31.894 5.278 5.612 13.952 9.244 24.354 9.244 8.847 0 17.544-1.688 21.65-3.211l-.387-23.37c-3.054.748-6.56 1.35-11.362 1.35-10.193 0-13.6-6.53-13.6-19.977v-41.571h26.049V88.085h-26.05V53.26H720.72M643.508 89.9v110.645h30.859v-56.653c0-3.062.185-5.73.669-8.17 2.282-11.874 11.358-19.454 24.393-19.454 3.573 0 6.131.39 8.902.783V88.085c-2.326-.464-3.904-.68-6.797-.68-11.515 0-24.617 7.43-30.115 23.369h-.834V89.9h-27.077M350.338 89.9v110.645h30.064v-64.882c0-3.046.358-6.266 1.413-9.056 2.491-6.533 8.572-14.184 18.273-14.184 12.137 0 17.804 10.256 17.804 25.058v63.06h30.04v-65.674c0-2.904.398-6.407 1.256-8.97 2.468-7.434 9.017-13.479 18.037-13.479 12.299 0 18.202 10.076 18.202 27.498v60.62h30.06v-65.17c0-34.365-17.45-47.97-37.152-47.97-8.717 0-15.604 2.185-21.834 5.998-5.23 3.223-9.922 7.789-14.015 13.79h-.445c-4.75-11.924-15.927-19.787-30.493-19.787-18.713 0-27.124 9.485-32.224 17.529h-.449V89.892h-28.537" class="st1"/></g></svg>