<?xml version="1.0" standalone="no"?>
<!DOCTYPE svg PUBLIC "-//W3C//DTD SVG 20010904//EN"
 "http://www.w3.org/TR/2001/REC-SVG-20010904/DTD/svg10.dtd">
<svg version="1.0" xmlns="http://www.w3.org/2000/svg"
 width="512.000000pt" height="512.000000pt" viewBox="0 0 512.000000 512.000000"
 preserveAspectRatio="xMidYMid meet">
<metadata>
Created by potrace 1.11, written by Peter Selinger 2001-2013
</metadata>
<g transform="translate(0.000000,512.000000) scale(0.100000,-0.100000)"
fill="#000000" stroke="none">
<path d="M2095 4571 c-76 -39 -152 -106 -227 -199 -84 -106 -105 -154 -159
-362 -27 -102 -57 -213 -68 -248 -14 -46 -16 -64 -8 -67 7 -2 68 -10 137 -19
511 -64 1050 -65 1565 -1 180 23 167 16 149 73 -15 48 -78 283 -109 405 -41
161 -252 395 -393 438 -57 17 -117 2 -247 -59 -91 -43 -106 -47 -175 -47 -70
0 -83 4 -187 53 -147 70 -195 75 -278 33z"/>
<path d="M863 3840 c-77 -39 -123 -130 -123 -241 0 -133 74 -211 283 -301 103
-45 337 -107 500 -134 85 -13 107 -20 106 -33 0 -9 -11 -56 -23 -106 l-23 -90
-64 -6 c-110 -10 -109 -9 -109 -93 l0 -72 43 -35 c33 -28 48 -53 71 -113 l29
-76 1 -267 c1 -303 -3 -285 92 -413 73 -100 588 -608 638 -630 118 -52 454
-52 572 0 52 23 557 522 637 630 l56 75 86 24 c47 13 84 26 81 28 -2 2 -36 -5
-76 -17 -40 -12 -74 -19 -77 -17 -2 3 1 16 9 29 10 17 13 86 14 285 l1 262 33
86 c26 68 41 92 69 113 50 37 51 39 51 109 0 75 -6 80 -112 91 l-72 7 -27 107
-26 107 26 5 c14 3 67 12 116 21 380 64 650 185 715 321 31 62 25 180 -11 251
-70 135 -257 153 -372 35 -20 -20 -87 -104 -149 -187 -109 -144 -165 -199
-197 -193 -9 2 -30 33 -48 69 l-32 65 -123 -17 c-584 -80 -1101 -81 -1703 -3
-66 9 -128 17 -138 17 -12 2 -27 -17 -50 -63 -18 -37 -40 -66 -49 -68 -28 -5
-99 70 -226 238 -141 187 -176 213 -286 218 -57 2 -79 -1 -113 -18z m1107
-731 c291 -28 998 -21 1285 12 l80 9 26 -32 c22 -26 31 -30 57 -25 27 6 32 3
47 -30 9 -19 21 -49 26 -65 8 -30 8 -30 -24 -24 -154 31 -433 31 -572 0 -156
-35 -499 -34 -645 2 -93 22 -451 26 -539 6 -30 -7 -56 -10 -59 -8 -2 3 2 24
10 48 11 32 23 47 48 59 18 9 39 28 47 43 14 26 18 27 61 21 26 -3 94 -10 152
-16z m131 -189 c172 -20 274 -69 299 -145 19 -58 -23 -226 -82 -324 -31 -53
-88 -110 -130 -132 -132 -68 -377 -64 -480 8 -43 29 -79 96 -103 188 -19 75
-19 147 0 255 8 47 15 86 15 87 0 6 79 35 120 44 111 26 241 33 361 19z m1264
-11 c47 -8 155 -45 155 -53 0 0 7 -39 15 -86 19 -107 19 -168 0 -248 -30 -125
-85 -200 -169 -229 -38 -13 -82 -18 -171 -18 -224 0 -316 50 -395 218 -44 92
-70 181 -70 242 0 60 29 98 102 134 55 27 95 36 223 55 47 7 244 -3 310 -15z
m-1835 -69 c0 -5 -18 -10 -40 -10 -22 0 -40 5 -40 10 0 6 18 10 40 10 22 0 40
-4 40 -10z m2160 0 c0 -5 -20 -10 -45 -10 -25 0 -45 5 -45 10 0 6 20 10 45 10
25 0 45 -4 45 -10z m-1061 -114 c26 -23 71 -109 91 -171 23 -73 79 -162 135
-213 91 -84 210 -117 385 -109 167 7 233 45 290 164 l28 58 7 -130 c10 -156
-4 -310 -32 -358 -19 -31 -26 -34 -362 -129 -314 -89 -345 -96 -366 -82 -19
13 -44 11 -221 -13 -109 -14 -202 -29 -207 -33 -4 -3 87 -14 201 -24 215 -19
252 -16 252 19 0 16 -18 10 355 120 160 47 296 88 303 90 19 7 8 -9 -71 -102
-98 -117 -522 -530 -568 -553 -106 -55 -453 -54 -560 1 -52 26 -553 528 -626
626 -79 106 -85 134 -81 378 l3 190 22 -48 c65 -141 163 -185 382 -174 228 11
351 102 437 323 72 188 129 235 203 170z"/>
<path d="M2492 2403 c-12 -82 -25 -183 -29 -226 -8 -104 3 -117 96 -116 36 0
75 4 86 9 12 5 -10 6 -53 3 -83 -7 -112 8 -112 58 0 32 24 214 44 337 10 62
10 82 1 82 -7 0 -19 -53 -33 -147z"/>
<path d="M2130 1808 c-11 -18 -20 -51 -20 -72 0 -49 4 -46 35 37 26 71 18 89
-15 35z"/>
<path d="M4031 2116 c-7 -8 -20 -12 -30 -9 -19 5 -45 -20 -39 -37 2 -6 13 -2
26 10 20 19 22 19 23 3 0 -11 3 -13 6 -5 2 6 19 12 38 12 18 0 39 7 46 17 13
15 11 16 -13 11 -16 -3 -28 -1 -28 3 0 14 -16 11 -29 -5z"/>
<path d="M3921 2086 c-7 -8 -20 -12 -30 -9 -9 2 -23 -3 -31 -12 -11 -13 -10
-18 6 -30 18 -14 17 -15 -11 -9 -21 4 -26 3 -16 -4 11 -8 11 -10 0 -15 -8 -2
-2 -8 15 -12 19 -5 31 -4 36 5 4 7 12 10 18 6 13 -8 44 3 37 14 -2 4 -18 10
-35 14 -20 3 -29 10 -24 17 4 8 9 7 15 -2 6 -10 12 -9 28 5 21 19 28 46 12 46
-5 0 -14 -6 -20 -14z"/>
<path d="M4050 2070 c0 -5 11 -10 25 -10 14 0 25 5 25 10 0 6 -11 10 -25 10
-14 0 -25 -4 -25 -10z"/>
<path d="M3811 2051 c-24 -24 -27 -41 -8 -41 15 0 44 47 35 56 -4 3 -16 -4
-27 -15z"/>
<path d="M3987 2056 c4 -5 -6 -6 -21 -2 -26 6 -33 -10 -11 -26 18 -14 48 -9
42 6 -5 12 2 13 31 9 31 -5 35 -3 24 8 -14 15 -74 20 -65 5z"/>
<path d="M3745 1999 c-17 -8 -15 -8 8 -4 15 3 27 1 27 -4 0 -13 37 -24 51 -16
28 18 -53 40 -86 24z"/>
<path d="M1942 1228 c-71 -192 -75 -332 -16 -582 26 -111 29 -116 53 -116 43
0 98 18 296 99 l190 78 135 -3 c154 -2 183 -10 455 -128 l150 -65 27 57 c78
165 93 397 37 602 -11 41 -23 81 -27 87 -6 9 -38 3 -127 -23 -151 -45 -261
-96 -348 -163 -56 -43 -70 -50 -86 -41 -25 13 -116 13 -160 0 -31 -9 -37 -7
-70 23 -92 83 -197 139 -358 191 -62 20 -117 36 -122 36 -5 0 -18 -24 -29 -52z"/>
</g>
</svg>
