<svg version="1" xmlns="http://www.w3.org/2000/svg" width="346.667" height="346.667" viewBox="0 0 260.000000 260.000000"><path d="M102.6 1.5c-6.7 2.3-17.8 13.3-22.3 21.9-1.2 2.3-7.3 24-9.5 33.6-.2 1 2.1 1.7 8.5 2.6 16.4 2.2 26.1 2.8 51.2 2.8 24.4.1 29-.1 50.3-2.5l10.4-1.2-.5-2.6c-1.4-8.4-8.3-31.3-10.5-35.1-3.3-5.6-13.6-16.2-18.1-18.5-5.1-2.6-10.1-2.1-19 1.9-9.9 4.5-14.4 4.6-23 .6-8.8-4.2-13-5-17.5-3.5z"/><path d="M20.8 49.2c-4.3 2.5-6.4 5.9-7.3 12-1.3 9 2.7 15 14.1 20.6 4.9 2.5 13.5 5.6 18.9 6.8 6.4 1.5 15.9 3.4 19.5 3.9 2.5.4 4.5.7 4.6.8 0 .1-.7 3.1-1.5 6.7-1.6 6.4-1.7 6.5-5.1 6.7-7.6.6-8 .9-7.9 6.3.1 4.1.6 5.2 2.6 6.5 1.3.9 3.4 3.7 4.5 6.3 1.8 4.1 2.1 6.6 2 20.4 0 8.7.4 17.5 1 19.6.5 2.2 2.8 6.1 5 8.8 10.4 12.7 37.8 39 42.8 41.2 4.4 1.9 27.6 2.2 33.5.4 2.2-.7 6.4-3.5 9.5-6.3 11.9-11 29.4-28.7 33.6-34 4.1-5.1 5.1-5.8 11.4-7.6 4.2-1.3 7.2-1.7 7.8-1.1 1.1 1.1 14.2-2.1 14.2-3.5 0-.4.4-.6.9-.3.5.4 2.2.1 3.7-.5 2.1-.7 2.5-1.2 1.5-1.8-1.1-.7-1.1-1 0-1.7 1-.6.7-1-1.1-1.4-1.4-.4-3.1-.2-3.7.3-.7.5-1.3.7-1.3.3 0-.4-1.3 0-3 .9-1.6.8-3.3 1.4-3.7 1.3-1.7-.3-6.4 1.5-7.2 2.9-.4.8-3.7 2.3-7.3 3.3l-6.5 1.8.8-4.5c.5-2.5.7-11.1.6-19.2-.4-16.1.8-21 6-25.5 1.9-1.6 2.5-3.2 2.6-6.5.2-5.1-.5-5.8-6.2-6.3l-4.5-.4-1.7-6.7c-1.2-4.7-1.3-6.7-.5-6.8.6 0 1.8-.2 2.6-.4.8-.1 3.5-.6 5.9-1 16.1-2.4 34.3-9.2 41.3-15.4 4.4-3.8 5.7-7.2 5.2-13.5-.7-11.8-10.7-18.4-20.6-13.7-5.7 2.6-6.1 3.1-14.6 14.3-7.8 10.3-11.5 14-13.5 13.2-.7-.3-2-2.3-3.1-4.5-1.7-3.8-2.1-4-5-3.5-3.1.6-9.2 1.4-15.1 2-10.1 1.2-16.7 1.8-21.5 2.1-6.9.5-43.7.5-47 .1-1.4-.2-6.5-.7-11.5-1-4.9-.4-11.7-1.1-15-1.6-15.9-2.3-15-2.4-16.3 1.4-.7 1.9-1.9 3.9-2.6 4.5-2 1.7-6.2-2.2-14.5-13.2-3.8-5.1-7.7-9.9-8.7-10.8-5.5-4.7-13.1-5.8-18.6-2.7zm71.7 46.4c12.6 1.1 63.5 1.1 77.8 0 9.7-.7 11-.6 12.1.9.7 1 2.3 1.8 3.6 1.9 1.7.1 2.7 1.1 3.7 3.4l1.4 3.4-6.8-.8c-12.4-1.4-27.9-.8-35.9 1.5-3.3.9-33.4.8-35-.2-3.1-1.9-24.5-2.7-35.6-1.3l-5.7.7 1-3.1c.6-1.6 1.6-3 2.3-3 .7 0 2.2-1.1 3.4-2.5 1.3-1.4 2.6-2.4 3-2.2.4.3 5.2.9 10.7 1.3zm17.7 13.8c9.6 3.1 11.8 7.3 9 17.1-2 7.1-6.1 14.4-9.7 17-8.5 6.4-28 6.8-34.7.8-3.9-3.4-6.1-10.2-5.9-18.3.2-10.7 1.2-14.3 4.3-15.7 6.8-3.3 27.6-3.8 37-.9zm76.7.3c4.4 1.4 5.5 2.3 5.8 4.3 1.7 11.3 1.8 14.1.8 18.6-2.5 11.1-7.5 15.1-19.7 15.8-8.8.5-18.2-2.1-22.2-6.1-6.1-6.1-11.3-22.3-8.7-27.1 3.8-7.1 29.8-10.4 44-5.5zm-123.6 3c-.7.2-2.1.2-3 0-1-.3-.4-.5 1.2-.5 1.7 0 2.4.2 1.8.5zm139 0c-.7.2-1.9.2-2.5 0-.7-.3-.2-.5 1.2-.5s1.9.2 1.3.5zm-67.1 8.1c1.3 1.5 3.6 6 5.2 10 6.3 15.7 14.8 20.9 33.1 20.5 9.9-.3 14.5-2.3 18.1-8l2.9-4.7.5 5c.8 8.3-.5 23.3-2.3 25.1-.8.9-5.3 2.6-9.9 3.8-4.6 1.3-14.3 3.9-21.6 5.9-8.4 2.3-13.8 3.4-14.8 2.8-.8-.5-5.5-.3-10.7.5-5.1.7-11.2 1.5-13.6 1.8-6.3.7-6 1.1 1.1 1.8 20.5 2.1 22.8 2.1 25.1-.1 1.2-1.1 4.7-2.7 7.7-3.5 3-.9 8-2.3 11-3.2 3-.9 8.4-2.5 12-3.5 3.6-1 7.6-2.2 8.9-2.6l2.5-.7-2.1 2.9c-2.1 2.8-25.8 26.6-33.8 33.9-6.1 5.5-9.3 6.5-21.6 6.6-9.7.1-16.8-.9-19.7-2.8-4.3-2.7-32.9-30.8-39.5-38.8-5.4-6.7-6.5-12.5-5.8-31l.2-4 1.6 3c3.7 7 8 9.4 18.1 9.8 20 1 28.8-5.1 36.2-25 1.5-3.9 5.4-8.3 7.4-8.3.8 0 2.5 1.3 3.8 2.8z"/><path d="M127.6 132.7c-.3 1-.8 3.6-1.2 5.8-.4 2.2-.8 4.9-1 6-1 5.7-1.3 15.2-.5 16.4 1.2 1.9 10.7 1.9 12.4.1.7-.7.8-1 .2-.7-.5.3-2.7.8-4.8 1.1-5.5.9-7.8-1.7-6.7-7.5.5-2.4 1.1-6.9 1.5-9.9.4-3 1-7.2 1.5-9.3.8-3.6-.4-5.4-1.4-2zM102.6 177.2c-1.7 2.4-2.2 8.8-.8 8.8.5 0 .9-1.4 1-3.1 0-1.7.8-3.9 1.6-4.8 1.8-2 2-3.1.7-3.1-.6 0-1.7 1-2.5 2.2zM91.5 213c-.4.6-1.5 4-2.5 7.6-2.2 7.9-2.3 18.3-.4 26.7C91 257.5 92 260 93.9 260c2.3 0 11.1-3.1 18.5-6.5 9.7-4.4 12.7-5.1 22.2-4.9 8.5.1 9.9.4 23 5.8 7.7 3.1 14.4 5.6 15 5.6 2.6 0 6.2-14.2 6.2-24.9 0-7.1-2.7-21.3-4.3-23-.2-.2-4.4.9-9.2 2.4-9.5 2.9-18.4 7.2-22.3 10.8-2.2 1.9-3.5 2.2-10.1 2-7.2-.1-8-.4-12.4-3.8-5.5-4.1-9-5.8-19.5-9.1-8.6-2.7-8.7-2.8-9.5-1.4z"/></svg>