<svg xmlns="http://www.w3.org/2000/svg" viewBox="0 0 30 30"><defs><style>.cls-1{fill:#312821;fill-rule:evenodd;}</style></defs><title>Asset 3</title><g id="Layer_2" data-name="Layer 2"><g id="Layer_1-2" data-name="Layer 1"><path class="cls-1" d="M25,0H5A5.05,5.05,0,0,0,0,5V25a5.05,5.05,0,0,0,5,5H25a5.05,5.05,0,0,0,5-5V5A5.05,5.05,0,0,0,25,0ZM11.25,24.38H7.5V11.25h3.75Zm-1.88-15A1.88,1.88,0,1,1,11.25,7.5,1.88,1.88,0,0,1,9.38,9.38Zm15,15H20.63v-7.5a1.87,1.87,0,1,0-3.75,0v7.5H13.13V11.25h3.75v2.33c.77-1.06,2-2.33,3.28-2.33a4.47,4.47,0,0,1,4.22,4.69Z"/></g></g></svg>