<svg xmlns="http://www.w3.org/2000/svg" viewBox="0 0 30 24.01"><defs><style>.cls-1{fill:#312821;fill-rule:evenodd;}</style></defs><title>icon-twitter</title><g id="Layer_2" data-name="Layer 2"><g id="Layer_1-2" data-name="Layer 1"><path class="cls-1" d="M30,2.84h0a12.46,12.46,0,0,1-3.53,1A6.1,6.1,0,0,0,29.17.44a12.44,12.44,0,0,1-3.91,1.47A6.19,6.19,0,0,0,20.77,0a6.11,6.11,0,0,0-6.15,6.06,6,6,0,0,0,.16,1.38A17.57,17.57,0,0,1,2.09,1.11a6,6,0,0,0-.83,3A6,6,0,0,0,4,9.2,6.21,6.21,0,0,1,1.2,8.44s0,.05,0,.08a6.09,6.09,0,0,0,4.94,5.94,6.25,6.25,0,0,1-2.78.1,6.15,6.15,0,0,0,5.75,4.21,12.47,12.47,0,0,1-7.64,2.59A12.74,12.74,0,0,1,0,21.28,17.62,17.62,0,0,0,9.43,24,17.25,17.25,0,0,0,26.95,6.76c0-.26,0-.52,0-.78A12.39,12.39,0,0,0,30,2.84Z"/></g></g></svg>