<svg xmlns="http://www.w3.org/2000/svg" viewBox="0 0 30 28.99"><defs><style>.cls-1{fill:#312821;}</style></defs><title>icon-github</title><g id="Layer_2" data-name="Layer 2"><g id="Layer_1-2" data-name="Layer 1"><path class="cls-1" d="M15,0a14.85,14.85,0,0,0-4.74,29c.75.14,1-.32,1-.71s0-1.53,0-2.77c-4.17.9-5.05-1.75-5.05-1.75a3.94,3.94,0,0,0-1.67-2.17c-1.36-.92.1-.9.1-.9a3.15,3.15,0,0,1,2.3,1.53,3.21,3.21,0,0,0,4.37,1.24,3.15,3.15,0,0,1,1-2c-3.33-.38-6.83-1.65-6.83-7.35A5.72,5.72,0,0,1,7,10.1a5.3,5.3,0,0,1,.15-3.93s1.26-.4,4.13,1.52a14.36,14.36,0,0,1,7.51,0c2.86-1.92,4.12-1.52,4.12-1.52A5.29,5.29,0,0,1,23,10.1a5.72,5.72,0,0,1,1.54,4c0,5.71-3.51,7-6.85,7.33a3.53,3.53,0,0,1,1,2.75c0,2,0,3.59,0,4.08s.27.86,1,.71A14.85,14.85,0,0,0,15,0Z"/></g></g></svg>