<svg width="1em" height="1em" viewBox="0 0 100 100" xmlns="http://www.w3.org/2000/svg"><path d="M62.43 77.004a2.392 2.392 0 01-2.394 2.394l-18.774.004a2.392 2.392 0 01-2.394-2.394V22.996a2.395 2.395 0 012.394-2.395h10.802a2.395 2.395 0 012.394 2.395zM93.133 59.227c-1.457 0-2.469-.676-3.441-1.328-.922-.613-1.793-1.195-3.067-1.195-1.18 0-2.015.496-2.98 1.07-1.145.68-2.442 1.453-4.457 1.453s-3.207-.77-4.258-1.445c-.895-.578-1.672-1.078-2.914-1.078-1.492 0-2.793.695-4.055 1.367-1.11.594-2.16 1.156-3.25 1.156a.795.795 0 01-.797-.797c0-.441.356-.797.797-.797.692 0 1.57-.469 2.5-.969 1.367-.73 2.914-1.558 4.805-1.558 1.715 0 2.812.707 3.777 1.332.95.613 1.848 1.191 3.395 1.191 1.578 0 2.582-.597 3.64-1.23 1.07-.637 2.18-1.297 3.797-1.297 1.758 0 2.922.777 3.95 1.465.85.566 1.581 1.058 2.558 1.058a.802.802 0 010 1.602zM93.133 75.711c-1.457 0-2.469-.676-3.441-1.324-.922-.613-1.793-1.196-3.067-1.196-1.18 0-2.015.497-2.98 1.07-1.145.68-2.442 1.454-4.457 1.454s-3.207-.77-4.258-1.445c-.895-.579-1.672-1.075-2.914-1.075-1.492 0-2.793.696-4.055 1.368-1.11.593-2.16 1.156-3.25 1.156-.441 0-.797-.356-.797-.797s.356-.797.797-.797c.692 0 1.57-.473 2.5-.969 1.367-.73 2.914-1.558 4.805-1.558 1.715 0 2.812.707 3.777 1.332.95.613 1.848 1.191 3.395 1.191 1.578 0 2.582-.598 3.64-1.23 1.07-.637 2.18-1.297 3.797-1.297 1.758 0 2.922.777 3.95 1.464.85.567 1.581 1.06 2.558 1.06.441 0 .797.355.797.796 0 .441-.36.797-.797.797zM93.133 67.512c-1.457 0-2.469-.676-3.441-1.328-.922-.613-1.793-1.195-3.067-1.195-1.18 0-2.015.496-2.98 1.07-1.145.683-2.442 1.453-4.457 1.453s-3.207-.77-4.258-1.445c-.895-.578-1.672-1.074-2.914-1.074-1.492 0-2.793.695-4.055 1.367-1.11.593-2.16 1.156-3.25 1.156a.798.798 0 010-1.594c.692 0 1.57-.469 2.5-.969 1.367-.73 2.914-1.554 4.805-1.554 1.715 0 2.812.707 3.777 1.332.95.613 1.848 1.191 3.395 1.191 1.578 0 2.582-.598 3.64-1.23 1.07-.637 2.18-1.297 3.797-1.297 1.758 0 2.922.777 3.95 1.464.85.567 1.581 1.06 2.558 1.06.441 0 .797.355.797.796a.8.8 0 01-.797.797zM35.297 36.098c-1.457 0-2.469-.676-3.441-1.328-.922-.617-1.793-1.2-3.063-1.2-1.184 0-2.016.497-2.98 1.071-1.145.684-2.442 1.453-4.461 1.453-2.016 0-3.207-.77-4.258-1.445-.895-.578-1.668-1.078-2.914-1.078-1.489 0-2.793.695-4.055 1.37-1.113.595-2.164 1.157-3.254 1.157a.795.795 0 01-.797-.797c0-.441.356-.797.797-.797.692 0 1.57-.469 2.504-.969 1.367-.73 2.914-1.554 4.805-1.554 1.715 0 2.812.707 3.777 1.332.95.613 1.848 1.191 3.395 1.191 1.578 0 2.582-.597 3.644-1.226 1.07-.637 2.176-1.297 3.797-1.297 1.758 0 2.922.777 3.95 1.464.85.567 1.585 1.06 2.558 1.06.441 0 .797.355.797.796a.806.806 0 01-.801.797zM35.297 52.582c-1.457 0-2.469-.676-3.441-1.328-.922-.613-1.793-1.195-3.063-1.195-1.184 0-2.016.496-2.98 1.07-1.145.683-2.442 1.453-4.461 1.453-2.016 0-3.207-.77-4.258-1.445-.895-.578-1.668-1.075-2.914-1.075-1.489 0-2.793.696-4.055 1.368-1.113.59-2.164 1.152-3.254 1.152-.441 0-.797-.355-.797-.797s.356-.797.797-.797c.692 0 1.57-.469 2.504-.965 1.367-.73 2.914-1.558 4.805-1.558 1.715 0 2.812.707 3.777 1.332.95.613 1.848 1.191 3.395 1.191 1.578 0 2.582-.597 3.644-1.23 1.07-.637 2.176-1.297 3.797-1.297 1.758 0 2.922.781 3.95 1.465.85.566 1.585 1.058 2.558 1.058.441 0 .797.356.797.797a.807.807 0 01-.801.8zM35.297 44.379c-1.457 0-2.469-.676-3.441-1.324-.922-.617-1.793-1.2-3.063-1.2-1.184 0-2.016.497-2.98 1.07-1.145.68-2.442 1.454-4.461 1.454-2.016 0-3.207-.77-4.258-1.445-.895-.578-1.668-1.078-2.914-1.078-1.489 0-2.793.695-4.055 1.367-1.113.594-2.164 1.156-3.254 1.156a.795.795 0 01-.797-.797c0-.441.356-.797.797-.797.692 0 1.57-.469 2.504-.969 1.367-.73 2.914-1.554 4.805-1.554 1.715 0 2.812.707 3.777 1.332.95.613 1.848 1.191 3.395 1.191 1.578 0 2.582-.597 3.644-1.23 1.07-.637 2.176-1.297 3.797-1.297 1.758 0 2.922.777 3.95 1.465.85.566 1.585 1.058 2.558 1.058.441 0 .797.356.797.797a.807.807 0 01-.801.8zM35.297 60.234c-1.457 0-2.469-.676-3.441-1.324-.922-.613-1.793-1.195-3.063-1.195-1.184 0-2.016.496-2.98 1.07-1.145.68-2.442 1.453-4.461 1.453-2.016 0-3.207-.77-4.258-1.445-.895-.575-1.668-1.075-2.914-1.075-1.489 0-2.793.696-4.055 1.368-1.113.593-2.164 1.156-3.254 1.156a.795.795 0 01-.797-.797c0-.441.356-.797.797-.797.692 0 1.57-.473 2.504-.969 1.367-.73 2.914-1.554 4.805-1.554 1.715 0 2.812.707 3.777 1.332.95.613 1.848 1.191 3.395 1.191 1.578 0 2.582-.598 3.644-1.23 1.07-.637 2.176-1.293 3.797-1.293 1.758 0 2.922.777 3.95 1.464.85.567 1.585 1.059 2.558 1.059.441 0 .797.355.797.797a.802.802 0 01-.801.789zM35.297 76.723c-1.457 0-2.469-.676-3.441-1.324-.922-.617-1.793-1.196-3.063-1.196-1.184 0-2.016.497-2.98 1.07-1.145.68-2.442 1.454-4.461 1.454-2.016 0-3.207-.77-4.258-1.445-.895-.579-1.668-1.075-2.914-1.075-1.489 0-2.793.696-4.055 1.368-1.113.593-2.164 1.156-3.254 1.156-.441 0-.797-.356-.797-.797s.356-.797.797-.797c.692 0 1.57-.473 2.504-.969 1.367-.73 2.914-1.558 4.805-1.558 1.715 0 2.812.707 3.777 1.332.95.613 1.848 1.191 3.395 1.191 1.578 0 2.582-.598 3.644-1.23 1.07-.637 2.176-1.297 3.797-1.297 1.758 0 2.922.777 3.95 1.464.85.567 1.585 1.06 2.558 1.06.441 0 .797.355.797.796a.804.804 0 01-.801.797zM35.297 68.52c-1.457 0-2.469-.676-3.441-1.328-.922-.613-1.793-1.195-3.063-1.195-1.184 0-2.016.496-2.98 1.07-1.145.683-2.442 1.453-4.461 1.453-2.016 0-3.207-.77-4.258-1.445C16.199 66.497 15.426 66 14.18 66c-1.489 0-2.793.696-4.055 1.368-1.113.593-2.164 1.156-3.254 1.156a.795.795 0 01-.797-.797c0-.441.356-.797.797-.797.692 0 1.57-.469 2.504-.969 1.367-.73 2.914-1.558 4.805-1.558 1.715 0 2.812.707 3.777 1.332.95.613 1.848 1.191 3.395 1.191 1.578 0 2.582-.597 3.644-1.23 1.07-.637 2.176-1.297 3.797-1.297 1.758 0 2.922.777 3.95 1.469.85.566 1.585 1.058 2.558 1.058.441 0 .797.356.797.797a.806.806 0 01-.801.797z"/></svg>